<?xml version="1.0" encoding="utf-8"?>
<!-- Generator: Adobe Illustrator 18.0.0, SVG Export Plug-In . SVG Version: 6.00 Build 0)  -->
<!DOCTYPE svg PUBLIC "-//W3C//DTD SVG 1.1//EN" "http://www.w3.org/Graphics/SVG/1.1/DTD/svg11.dtd" [
	<!ENTITY ns_flows "http://ns.adobe.com/Flows/1.0/">
	<!ENTITY ns_extend "http://ns.adobe.com/Extensibility/1.0/">
	<!ENTITY ns_ai "http://ns.adobe.com/AdobeIllustrator/10.0/">
	<!ENTITY ns_graphs "http://ns.adobe.com/Graphs/1.0/">
]>
<svg version="1.1" xmlns:x="&ns_extend;" xmlns:i="&ns_ai;" xmlns:graph="&ns_graphs;"
	 xmlns="http://www.w3.org/2000/svg" xmlns:xlink="http://www.w3.org/1999/xlink" xmlns:a="http://ns.adobe.com/AdobeSVGViewerExtensions/3.0/"
	 x="0px" y="0px" width="1400px" height="980px" viewBox="0 0 1400 980" enable-background="new 0 0 1400 980" xml:space="preserve"
	>
<g id="Layer_2">
</g>
<g id="Layer_1">
	<g>
		<rect x="0" y="0" fill="#FFFFFF" width="1400" height="980"/>
		<g>
			<g>
				<path fill="#292929" d="M124.7,40.3c0.8,0.4,1.1,0.9,1.1,1.6c0,0.5-0.2,1.1-0.6,1.9c-0.5,1.1-0.8,1.6-0.8,1.8
					c-0.8,2.4-1.5,6.1-2.2,11.1c-0.7,5-1.4,8.6-2.1,10.9c-0.2,0.7-0.8,1-1.7,1c-0.4,0-0.8-0.1-1.1-0.2c-1.2-0.6-2.1-1.8-2.6-3.6
					c0-0.2-0.3-1.8-0.9-4.9c-0.3-1.6-0.6-3.4-0.8-5.3c-0.5,0.9-1.1,3.2-1.8,6.8c-0.7,3.1-1.4,5.2-2.3,6c-0.3,0.3-0.7,0.3-1.4,0.1
					c-1-0.1-1.6-0.7-2-1.8c-0.2-0.9-0.4-1.8-0.6-2.8c-0.6-2.4-1.1-6-1.4-11c-0.3-5-0.8-8.6-1.4-10.9c-0.1-0.4,0-0.8,0.1-1.1
					c0.2-0.4,0.5-0.6,0.8-0.6c0.3-0.1,0.5-0.1,0.8-0.1c0.9,0,1.6,0.4,2.1,1.2c0.5,2.8,1.1,8.1,1.9,16.1c0.3-0.6,0.6-1.6,0.9-3.1
					c0.3-1.5,0.7-2.6,1-3.3c0.3-1.2,0.6-2.5,0.8-3.7c0.4-1.5,1.2-2.3,2.5-2.3c0.3,0,0.7,0,1.1,0.1c0,0.2,0.2,0.3,0.4,0.3
					c0.3,0,0.4,0.1,0.4,0.1c0.7,1.6,1.3,3.8,1.6,6.4c0.6,3.8,0.9,6,1,6.6c0.5-2.9,1.1-5.8,1.6-8.7c0.7-3.4,1.6-6.1,2.7-8.3
					c0.2-0.4,0.7-0.6,1.4-0.6C123.9,40,124.3,40.1,124.7,40.3z"/>
				<path fill="#292929" d="M144.9,41.1c-1.2,0.5-3,1.1-5.4,1.7c-2.4,0.7-4.2,1.2-5.4,1.7c-0.3,0.9-0.5,2.8-0.6,5.7
					c0.5,0.2,1.1,0.3,1.8,0.3c0.5,0,1.3-0.1,2.3-0.2c1-0.2,1.8-0.2,2.3-0.2c0.9,0,1.7,0.2,2.4,0.6c0.5,0.7,0.7,1.1,0.7,1.3
					c0,0.2-0.1,0.4-0.3,0.5c-0.1,0-0.3,0.3-0.7,0.7c-0.3,0.3-0.6,0.4-1,0.4c-0.7,0.2-2,0.3-3.8,0.3c-1.5,0-2.8,0.2-3.7,0.6
					c-0.6,2.4-0.9,4.3-0.9,5.8c0,1,0.1,1.7,0.4,2.3c1.5,1.1,4.2,1.5,8,1.4c0.3,0,0.5-0.1,0.8-0.4c0.3-0.2,0.5-0.4,0.7-0.4
					c0.9-0.2,1.5,0.5,1.8,2.1c0.1,0.5,0,1-0.3,1.5c-0.3,0.4-0.7,0.7-1.2,0.7c-4,0.1-7.4-0.2-10.3-0.9c-0.9-0.2-1.8-0.7-2.5-1.5
					c-0.8-0.8-1.2-1.7-1.3-2.7c-0.3-2.9-0.3-5.4,0-7.7c-0.9-0.6-1.3-1.2-1.2-1.8c0-0.3,0.3-0.6,0.8-0.8c0.5-0.2,0.7-0.5,0.8-0.8
					c0.1-0.3,0.2-1.8,0.4-4.7c-1.8-0.4-2.7-1-2.7-2.1c0-1,0.6-1.7,1.7-2.3c1-0.4,2.1-0.9,3.1-1.3c1.2-0.6,2.7-1.2,4.6-1.7
					c1.6-0.4,3.2-0.8,4.8-1.2c0.2,0,0.4,0,0.6,0c0.9,0,1.9,0.3,3.1,1c0,0.1,0.1,0.4,0.2,0.7c0.1,0.4,0.2,0.6,0.2,0.8
					C145.2,40.7,145.1,40.9,144.9,41.1z"/>
				<path fill="#292929" d="M162.9,41.1c-1.2,0.5-3,1.1-5.4,1.7c-2.4,0.7-4.2,1.2-5.4,1.7c-0.3,0.9-0.5,2.8-0.6,5.7
					c0.5,0.2,1.1,0.3,1.8,0.3c0.5,0,1.3-0.1,2.3-0.2c1-0.2,1.8-0.2,2.3-0.2c0.9,0,1.7,0.2,2.4,0.6c0.5,0.7,0.7,1.1,0.7,1.3
					c0,0.2-0.1,0.4-0.3,0.5c-0.1,0-0.3,0.3-0.7,0.7c-0.3,0.3-0.6,0.4-1,0.4c-0.7,0.2-2,0.3-3.8,0.3c-1.5,0-2.8,0.2-3.7,0.6
					c-0.6,2.4-0.9,4.3-0.9,5.8c0,1,0.1,1.7,0.4,2.3c1.5,1.1,4.2,1.5,8,1.4c0.3,0,0.5-0.1,0.8-0.4c0.3-0.2,0.5-0.4,0.7-0.4
					c0.9-0.2,1.5,0.5,1.8,2.1c0.1,0.5,0,1-0.3,1.5c-0.3,0.4-0.7,0.7-1.2,0.7c-4,0.1-7.4-0.2-10.3-0.9c-0.9-0.2-1.8-0.7-2.5-1.5
					c-0.8-0.8-1.2-1.7-1.3-2.7c-0.3-2.9-0.3-5.4,0-7.7c-0.9-0.6-1.3-1.2-1.2-1.8c0-0.3,0.3-0.6,0.8-0.8c0.5-0.2,0.7-0.5,0.8-0.8
					c0.1-0.3,0.2-1.8,0.4-4.7c-1.8-0.4-2.7-1-2.7-2.1c0-1,0.6-1.7,1.7-2.3c1-0.4,2.1-0.9,3.1-1.3c1.2-0.6,2.7-1.2,4.6-1.7
					c1.6-0.4,3.2-0.8,4.8-1.2c0.2,0,0.4,0,0.6,0c0.9,0,1.9,0.3,3.1,1c0,0.1,0.1,0.4,0.2,0.7c0.1,0.4,0.2,0.6,0.2,0.8
					C163.2,40.7,163.1,40.9,162.9,41.1z"/>
				<path fill="#292929" d="M180.9,63c0.2,0.2,0.3,0.4,0.3,0.7c0,0.2-0.1,0.7-0.4,1.5c-0.1,0-0.2,0-0.3,0c-0.2,0-0.5,0.1-0.8,0.2
					c-0.3,0.2-0.5,0.2-0.7,0.2c-0.2,0-0.3-0.1-0.5-0.2c-2.2-1.4-5.6-3.4-10.2-6.2c0.1,1.2,0.2,3,0.2,5.2c0,0.3,0,0.7,0.1,1.2
					c0.1,0.5,0.1,0.9,0.1,1.1c0,0.8-0.3,1.3-1,1.6c-0.2,0.1-0.5,0.2-0.8,0.2c-0.4,0-0.6-0.1-0.7-0.3c-0.9-0.3-1.3-0.9-1.5-1.7
					c-0.4-2.4-0.6-5.1-0.6-8.3c0-1.1,0-2.9,0.1-5.1c0.1-2.3,0.1-4,0.1-5.1c0-3.5-0.2-6.5-0.7-9.1c-0.1-0.4,0.2-0.7,0.7-0.8
					c0.4-0.1,0.8-0.1,1.2-0.2c0.4,0.1,0.9,0.3,1.3,0.5c0.5,0.2,0.7,0.5,0.7,0.9c0.5,4.5,0.7,8,0.6,10.6c1.3-1.2,2.9-2.8,4.6-4.8
					c1.5-1.7,2.9-3.4,4.4-5.1c0.4-0.2,0.8-0.2,1.3-0.2c1.3,0,2,0.4,2,1.3c-0.9,2-2.7,4.4-5.4,7.2c-3.1,3.2-5.2,5.6-6.1,6.9
					c2,1.2,4.1,2.4,6.2,3.6C177.4,60.2,179.3,61.6,180.9,63z"/>
				<path fill="#292929" d="M196.6,60c-0.1,0-2,1.4-5.8,4.1c-2.2,1.6-4.2,2.8-5.9,3.5c-0.2,0.1-0.4,0.1-0.6,0.1
					c-0.5,0-0.9-0.3-1.3-0.9c-0.6-0.8-0.9-1.2-0.9-1.2c-0.1-2.9,0.1-6.9,0.5-12.1c0.5-5.5,0.7-9.4,0.7-11.9c0-1.7-0.1-3.3-0.2-4.7
					c0.4-0.4,1-0.6,1.6-0.6c1.2,0,2,0.5,2.2,1.4c0.1,2.7,0,6.7-0.3,12.1c-0.3,5.4-0.5,9.4-0.4,12.1c0.9-0.4,2.1-1.1,3.6-2.1
					c1.6-1.1,2.8-1.9,3.5-2.2c0.2,0,0.5,0,0.9-0.1c0.4-0.1,0.7-0.1,0.9-0.1c0.7,0,1.1,0.3,1.4,0.8C197,58.9,197,59.5,196.6,60z"/>
				<path fill="#292929" d="M214.1,36.5c-0.9,3.7-2.6,8.5-5.1,14.5c-2.9,6.9-4.7,11.7-5.6,14.3c-0.2,0.5-0.2,1.2-0.2,2
					c0,1.1,0,1.8,0,2.1c-0.1,1.1-0.7,1.7-1.8,1.7c-0.6,0.1-1.2-0.1-1.8-0.6c-0.6-0.4-0.9-0.9-0.9-1.4c0.1-2.4,0.7-5.1,1.8-8.2
					c1-2.6,2-5.2,3.1-7.9c-2.3-6.2-4.3-10.8-6-13.7c-0.1-0.2-0.1-0.3-0.1-0.5c0-0.4,0.2-0.7,0.6-1c0.4-0.3,0.8-0.5,1.2-0.5
					c0.1,0,0.7,0.2,1.9,0.5c0.8,1.2,1.7,2.9,2.6,4.8c0.8,1.7,1.5,3.3,2.2,5c0.7-2,1.3-3.9,2-5.9c0.8-2.3,1.6-4.1,2.5-5.6
					c0.3-0.5,0.7-0.7,1.4-0.7C212.7,35.6,213.4,35.9,214.1,36.5z"/>
				<path fill="#292929" d="M241.7,36c0,0.9-0.6,1.4-1.8,1.7c-1.5,0.3-2.5,0.6-2.9,1c-3.7,3.9-5.5,8.9-5.5,15c0,2.9,0.5,5.6,1.4,8.2
					c0.8,2.1,1.3,3.5,1.6,4.1c0.8,1.6,1.8,2.8,3,3.4c0.5,0.2,1,0.4,1.5,0.6c0.5,0.3,0.8,0.7,0.8,1.2c0,0.5-0.2,1-0.5,1.4
					c-0.3,0.4-0.7,0.6-1.1,0.5c-0.4-0.1-1.1-0.3-2-0.6c-1.6-0.9-3.3-2.9-5.1-5.9c-0.5-0.8-0.9-1.5-1.4-2.3c-0.5-0.8-0.8-1.6-1.1-2.3
					c-0.2-0.5-0.4-2.6-0.8-6.3c-0.1-1.1-0.2-2.3-0.2-3.3c0-5.8,1.7-10.7,5.1-14.8c2-2.4,4-3.5,6.2-3.5c0.9,0,1.8,0.3,2.5,0.8
					C241.6,35.1,241.7,35.4,241.7,36z"/>
				<path fill="#292929" d="M258.8,63.3c0.2,0.5,0.3,1,0.3,1.4c0,0.7-0.3,1.2-0.8,1.7c-0.6,0.5-0.9,0.7-1.1,0.7
					c-1.6-0.3-2.6-1.6-3.1-3.9c-0.5-2.5-1-4.6-1.6-6.3c-1.1,0.1-2.2,0.2-3.3,0.3c-1.3,0.2-2.3,0.6-3,1.2c-0.4,1-0.8,2.8-1.4,5.4
					c-0.6,2.4-1.1,4.2-1.6,5.5c-0.3,0.6-0.8,0.8-1.7,0.5c-1.1-0.4-1.7-0.9-1.7-1.5c-0.1-1.2,0.3-2.9,1.1-5c1-2.4,1.5-4.1,1.6-5.1
					c0-0.3-0.2-0.6-0.6-1c-0.5-0.4-0.7-0.6-0.7-0.8c0-0.2,0.1-0.3,0.2-0.5c0.1-0.2,0.5-0.3,1-0.4c0.5-0.1,0.8-0.3,0.9-0.5
					c0.6-1.6,1.5-4.7,2.8-9.2c1.1-3.9,2.1-6.8,2.9-8.9c0.2-0.5,0.6-0.7,1.2-0.7c0.5,0,0.9,0.1,1.2,0.4c0.9,0.8,1.5,2,1.8,3.5
					c0.2,1.3,0.4,2.7,0.5,4C255.3,51.9,257,58.3,258.8,63.3z M251.6,53.9c-0.1-1.2-0.3-2.6-0.6-4.1c-0.3-1.3-0.6-2.6-0.9-3.9
					c-1,2.7-1.8,5.4-2.6,8.2C248,54,249.3,53.9,251.6,53.9z"/>
				<path fill="#292929" d="M274.7,60c-0.1,0-2,1.4-5.8,4.1c-2.2,1.6-4.2,2.8-5.9,3.5c-0.2,0.1-0.4,0.1-0.6,0.1
					c-0.5,0-0.9-0.3-1.3-0.9c-0.6-0.8-0.9-1.2-0.9-1.2c-0.1-2.9,0.1-6.9,0.5-12.1c0.5-5.5,0.7-9.4,0.7-11.9c0-1.7-0.1-3.3-0.2-4.7
					c0.4-0.4,1-0.6,1.6-0.6c1.2,0,2,0.5,2.2,1.4c0.1,2.7,0,6.7-0.3,12.1c-0.3,5.4-0.5,9.4-0.4,12.1c0.9-0.4,2.1-1.1,3.6-2.1
					c1.6-1.1,2.8-1.9,3.5-2.2c0.2,0,0.5,0,0.9-0.1c0.4-0.1,0.7-0.1,0.9-0.1c0.7,0,1.1,0.3,1.4,0.8C275.1,58.9,275.1,59.5,274.7,60z"
					/>
				<path fill="#292929" d="M293,41.1c-1.2,0.5-3,1.1-5.4,1.7c-2.4,0.7-4.2,1.2-5.4,1.7c-0.3,0.9-0.5,2.8-0.6,5.7
					c0.5,0.2,1.1,0.3,1.8,0.3c0.5,0,1.3-0.1,2.3-0.2c1-0.2,1.8-0.2,2.3-0.2c0.9,0,1.7,0.2,2.4,0.6c0.5,0.7,0.7,1.1,0.7,1.3
					c0,0.2-0.1,0.4-0.3,0.5c-0.1,0-0.3,0.3-0.7,0.7c-0.3,0.3-0.6,0.4-1,0.4c-0.7,0.2-2,0.3-3.8,0.3c-1.5,0-2.8,0.2-3.7,0.6
					c-0.6,2.4-0.9,4.3-0.9,5.8c0,1,0.1,1.7,0.4,2.3c1.5,1.1,4.2,1.5,8,1.4c0.3,0,0.5-0.1,0.8-0.4c0.3-0.2,0.5-0.4,0.7-0.4
					c0.9-0.2,1.5,0.5,1.8,2.1c0.1,0.5,0,1-0.3,1.5c-0.3,0.4-0.7,0.7-1.2,0.7c-4,0.1-7.4-0.2-10.3-0.9c-0.9-0.2-1.8-0.7-2.5-1.5
					c-0.8-0.8-1.2-1.7-1.3-2.7c-0.3-2.9-0.3-5.4,0-7.7c-0.9-0.6-1.3-1.2-1.2-1.8c0-0.3,0.3-0.6,0.8-0.8c0.5-0.2,0.7-0.5,0.8-0.8
					c0.1-0.3,0.2-1.8,0.4-4.7c-1.8-0.4-2.7-1-2.7-2.1c0-1,0.6-1.7,1.7-2.3c1-0.4,2.1-0.9,3.1-1.3c1.2-0.6,2.7-1.2,4.6-1.7
					c1.6-0.4,3.2-0.8,4.8-1.2c0.2,0,0.4,0,0.6,0c0.9,0,1.9,0.3,3.1,1c0,0.1,0.1,0.4,0.2,0.7c0.1,0.4,0.2,0.6,0.2,0.8
					C293.4,40.7,293.2,40.9,293,41.1z"/>
				<path fill="#292929" d="M315,35.8c-0.5,4.4-0.9,8.8-1.3,13.2c-0.6,5.3-0.8,9.6-0.8,13.1c0,1.1,0,2.3,0.1,3.4
					c0,0.5-0.2,1-0.6,1.4c-0.4,0.4-0.9,0.6-1.4,0.6c-1,0-1.9-0.7-2.6-2.1c-2.1-4.1-4.7-10.5-7.8-19.3c-0.1-0.2-0.1-0.3-0.2-0.3
					c-0.2,0-0.4,0.2-0.4,0.7c-0.6,4.7-0.8,9.6-0.8,14.8c0,2.5,0.1,5,0.2,7.6c0,1-0.2,1.6-0.8,2c-0.2,0.2-0.5,0.3-0.7,0.3
					c-0.2,0-0.5-0.1-0.9-0.3c-0.5-0.2-0.8-0.4-0.9-0.4c-0.4-0.1-0.7-0.5-0.8-1.2c0-0.5-0.1-1.1-0.1-1.6c-0.1-1.8-0.1-3.8-0.1-5.8
					c0-3.5,0.2-7.8,0.6-13c0.6-7.9,1-12.3,1-13.2c0-0.7,0.6-1.1,1.8-1.1c0.6-0.1,1.4,0.3,2.5,1.2c1,2,2.3,5.3,3.9,9.7
					c1.5,4.3,2.8,7.6,4,9.8c0.5-4.4,1.3-11,2.3-19.8c0.1-0.7,0.6-1,1.4-1c0.3,0,0.6,0,1,0.1c0.5,0.1,0.8,0.2,0.9,0.2
					C314.7,35.3,314.9,35.5,315,35.8z"/>
				<path fill="#292929" d="M331.7,54.8c-0.3,0.8-0.6,1.5-0.9,2.3c-0.4,0.9-0.8,1.6-1.3,2.1c-1,1.3-2,2.5-3.1,3.8
					c-1.2,1.5-2.3,2.6-3.3,3.1c-0.3,0.4-0.7,0.8-1.1,1.2c-0.4,0.4-0.8,0.6-1.2,0.6c-0.2,0-0.4,0-0.7-0.1c-0.3-0.1-0.5-0.2-0.9-0.3
					c-0.3-0.1-0.5-0.3-0.7-0.6c-0.1-1.4-0.1-2.9-0.1-4.4c0-1.6,0.1-4,0.2-7.2c0.1-3.2,0.2-5.6,0.2-7.2c0-2.1-0.1-4.1-0.2-5.9
					c0,0-0.4-0.4-1.1-1.1c-0.4-0.4-0.6-0.8-0.6-1.2c0-0.2,0-0.3,0.1-0.5c0.2-0.4,0.5-0.6,1.1-0.7c0.4-0.1,0.9-0.1,1.3-0.1
					c2.8,0.6,5.6,2.1,8.7,4.6c0.8,0.7,1.4,1.3,1.9,2.1c1.6,2.3,2.4,4.5,2.4,6.5C332.4,52.8,332.2,53.8,331.7,54.8z M328.2,49.5
					c-0.3-2.1-2.1-3.9-5.3-5.5c-0.2,5.5-0.3,11.3-0.2,17.4c3.7-3.7,5.6-7.2,5.6-10.6C328.3,50.4,328.3,50,328.2,49.5z"/>
				<path fill="#292929" d="M352.5,63.3c0.2,0.5,0.3,1,0.3,1.4c0,0.7-0.3,1.2-0.8,1.7c-0.6,0.5-0.9,0.7-1.1,0.7
					c-1.6-0.3-2.6-1.6-3.1-3.9c-0.5-2.5-1-4.6-1.6-6.3c-1.1,0.1-2.2,0.2-3.3,0.3c-1.3,0.2-2.3,0.6-3,1.2c-0.4,1-0.8,2.8-1.4,5.4
					c-0.6,2.4-1.1,4.2-1.6,5.5c-0.3,0.6-0.8,0.8-1.7,0.5c-1.1-0.4-1.7-0.9-1.7-1.5c-0.1-1.2,0.3-2.9,1.1-5c1-2.4,1.5-4.1,1.6-5.1
					c0-0.3-0.2-0.6-0.6-1c-0.5-0.4-0.7-0.6-0.7-0.8c0-0.2,0.1-0.3,0.2-0.5c0.1-0.2,0.5-0.3,1-0.4c0.5-0.1,0.8-0.3,0.9-0.5
					c0.6-1.6,1.5-4.7,2.8-9.2c1.1-3.9,2.1-6.8,2.9-8.9c0.2-0.5,0.6-0.7,1.2-0.7c0.5,0,0.9,0.1,1.2,0.4c0.9,0.8,1.5,2,1.8,3.5
					c0.2,1.3,0.4,2.7,0.5,4C349,51.9,350.7,58.3,352.5,63.3z M345.3,53.9c-0.1-1.2-0.3-2.6-0.6-4.1c-0.3-1.3-0.6-2.6-0.9-3.9
					c-1,2.7-1.8,5.4-2.6,8.2C341.7,54,343,53.9,345.3,53.9z"/>
				<path fill="#292929" d="M374.3,66c0.1,0.1,0.1,0.3,0.1,0.4c0,0.8-0.8,1.3-2.4,1.7c-1.7-1.3-3.9-3.4-6.5-6.2
					c-2.9-3.1-5-5.3-6.4-6.5c-0.1,0.9-0.3,3.1-0.5,6.7c-0.2,2.7-0.5,4.9-0.9,6.5c-0.1,0-0.3,0.1-0.6,0.2c-0.3,0.2-0.6,0.2-0.9,0.1
					c-1.4-0.3-2.2-1.3-2.2-3c0-0.5,0.1-1.1,0.2-2c0.1-1,0.2-1.5,0.2-1.8c0.1-1.9,0.2-4.2,0.2-6.8v-5.4c0-4.5,0.2-8.2,0.7-11.3
					c0.3-2,2.2-3,5.8-2.8c1.8,0.1,3.3,1,4.6,2.7c1.2,1.6,1.8,3.3,1.8,5.1c0,1.5-0.6,3.1-1.7,4.6c-1,1.4-2.2,2.5-3.6,3.2
					c-0.6,0.3-0.9,0.7-0.9,1.1c0,0.4,0.3,0.9,1,1.5c0.5,0.4,1,0.9,1.6,1.3c0,0,1.8,1.7,5.4,4.9C371.7,62.6,373.3,64.4,374.3,66z
					 M363.9,43.9c0.1-0.6,0.1-1.1,0.1-1.6c-0.1-0.7-0.4-1.3-0.9-1.9c-0.5-0.6-1.2-0.8-2.3-0.8c-0.8,0-1.3,0.2-1.5,0.7
					c-0.2,0.8-0.2,1.8-0.2,2.8c0,0.4,0,1.5,0.1,3.3c0.1,1.3,0.1,2.4,0,3.3C362,47.7,363.5,45.8,363.9,43.9z"/>
			</g>
			<g>
				<path fill="#ED1C24" d="M380.2,88.2H122.8c-11.5,0-20.8,9.3-20.8,20.8V493c0,11.5,9.3,20.8,20.8,20.8h257.3
					c11.5,0,20.8-9.3,20.8-20.8V109.1C401,97.5,391.7,88.2,380.2,88.2z"/>
				<path fill="#292929" d="M380.2,515.3H122.8c-12.3,0-22.3-10-22.3-22.3V109.1c0-12.3,10-22.3,22.3-22.3h257.3
					c12.3,0,22.3,10,22.3,22.3V493C402.5,505.3,392.5,515.3,380.2,515.3z M122.8,89.7c-10.7,0-19.3,8.7-19.3,19.3V493
					c0,10.7,8.7,19.3,19.3,19.3h257.3c10.7,0,19.3-8.7,19.3-19.3V109.1c0-10.7-8.7-19.3-19.3-19.3H122.8z"/>
				<path fill="#FFFFFF" d="M123.4,471.6V130.5c0-11.5,9.3-20.8,20.8-20.8h214.5c11.5,0,20.8,9.3,20.8,20.8v341.1
					c0,11.5-9.3,20.8-20.8,20.8H144.3C132.8,492.4,123.4,483.1,123.4,471.6z"/>
				<path fill="#292929" d="M358.7,493.9H144.3c-12.3,0-22.3-10-22.3-22.3V130.5c0-12.3,10-22.3,22.3-22.3h214.5
					c12.3,0,22.3,10,22.3,22.3v341.1C381.1,483.9,371.1,493.9,358.7,493.9z M144.3,111.1c-10.7,0-19.3,8.7-19.3,19.3v341.1
					c0,10.7,8.7,19.3,19.3,19.3h214.5c10.7,0,19.3-8.7,19.3-19.3V130.5c0-10.7-8.7-19.3-19.3-19.3H144.3z"/>
				<g>
					<rect x="156.4" y="176.4" fill="#292929" width="187" height="3"/>
				</g>
				<path fill="#292929" d="M218.3,166.1c0.1,0.7-0.3,1-1.4,1.1c-0.7,0-1.5-0.3-2.2-0.9c-0.6-0.6-1.1-1.5-1.5-2.7
					c-0.3-1.2-0.5-2.8-0.6-4.9c-0.1-2.4-0.2-4-0.3-4.9c-0.4,1.5-1.1,3.7-2.1,6.6c-0.6,1.6-1,2.5-1.1,2.8c-0.5,1-1.2,1.5-2,1.4
					c-1.6-0.4-2.8-1.3-3.7-2.7c-0.6-0.9-1.1-2.4-1.6-4.4c-0.5-2.2-1-3.7-1.3-4.5c-1.4,6.9-2.9,12.1-4.6,15.5
					c-0.2,0.5-0.9,0.5-2.1-0.1c-1-0.5-1.4-1.1-1.4-2c0-0.3,0.3-1.4,1-3.2c0.3-0.8,1.5-4.6,3.5-11.5c0.7-2.4,1.4-6.6,2.2-12.5
					c0.1-0.1,0.2-0.4,0.5-1c0.2-0.5,0.5-0.7,0.9-0.7c1.1,0,1.9,0.2,2.3,0.6c0,1,0.2,2.5,0.5,4.6c0.3,2.1,0.5,3.7,0.5,4.8
					c0.3,1.9,0.6,3.7,0.8,5.6c0.4,2.1,1,3.9,2,5.2c3.2-8.8,5.2-15.8,6-20.9c0.1-0.5,0.6-0.8,1.5-0.8c1.2,0,1.9,0.4,2.1,1.2
					c0.2,1.2,0.3,2.6,0.3,4.1c0,0.5,0,1.6-0.1,3.3c0,1.4,0,2.5,0,3.3C216.6,155.5,217.3,161.4,218.3,166.1z"/>
				<path fill="#292929" d="M237.5,154.5c-2,4.4-4.7,7-8.3,7.8c-0.4,0.1-0.9,0.1-1.3,0.1c-1.9,0-3.8-1-5.7-3.1
					c-1.3-1.4-1.9-3.2-1.9-5.4c0-2.4,0.7-5.1,2.2-7.9c0.6-1.2,1.4-2.2,2.3-3.1c1-1,2-1.5,2.9-1.5c0.5,0,1,0.2,1.5,0.6
					c0.5,0.4,1.7,0.9,3.7,1.6c1.6,0.5,2.7,1.4,3.4,2.7c1.2,2.2,1.7,4.1,1.7,5.7C238,153,237.9,153.8,237.5,154.5z M233.6,151.5
					c-0.2-2.4-0.9-3.9-1.9-4.3c-0.2-0.1-0.3-0.1-0.4-0.1c-0.4,0-0.9,0.3-1.5,1c-0.7,0.8-1.2,1.2-1.5,1.3c-0.2,0.1-0.6,0-1-0.3
					c-0.4-0.3-0.7-0.4-0.8-0.4c-0.1,0-0.2,0-0.2,0.1c-1.2,1-1.7,2.5-1.7,4.6c0,1.4,0.3,2.6,1,3.6c0.9,1.4,1.7,2,2.3,2
					c1.5,0,2.9-0.9,4.2-2.7C233.2,154.5,233.7,152.9,233.6,151.5z"/>
				<path fill="#292929" d="M260.7,135.2c-0.5,4.4-0.9,8.9-1.3,13.3c-0.6,5.3-0.8,9.7-0.8,13.2c0,1.2,0,2.3,0.1,3.4
					c0,0.5-0.2,1-0.6,1.4c-0.4,0.4-0.9,0.6-1.4,0.6c-1,0-1.9-0.7-2.6-2.1c-2.1-4.1-4.7-10.6-7.9-19.4c-0.1-0.2-0.1-0.3-0.2-0.3
					c-0.2,0-0.4,0.2-0.4,0.7c-0.6,4.7-0.8,9.7-0.8,14.9c0,2.5,0.1,5.1,0.2,7.7c0,1-0.2,1.6-0.8,2c-0.2,0.2-0.5,0.3-0.7,0.3
					c-0.2,0-0.5-0.1-0.9-0.3c-0.5-0.2-0.8-0.4-0.9-0.4c-0.4-0.1-0.7-0.5-0.8-1.2c0-0.5-0.1-1.1-0.1-1.6c-0.1-1.9-0.1-3.8-0.1-5.8
					c0-3.5,0.2-7.9,0.6-13.1c0.6-8,1-12.4,1-13.3c0-0.7,0.6-1.1,1.8-1.1c0.6-0.1,1.4,0.3,2.5,1.2c1.1,2,2.4,5.3,3.9,9.8
					c1.5,4.3,2.8,7.6,4.1,9.9c0.5-4.4,1.3-11,2.3-19.9c0.1-0.7,0.6-1,1.4-1c0.3,0,0.6,0,1,0.1c0.5,0.1,0.8,0.2,0.9,0.2
					C260.4,134.6,260.6,134.9,260.7,135.2z"/>
				<path fill="#292929" d="M277.7,154.3c-0.3,0.8-0.6,1.5-0.9,2.3c-0.4,0.9-0.8,1.6-1.3,2.1c-1,1.3-2,2.6-3.1,3.8
					c-1.2,1.5-2.3,2.6-3.3,3.2c-0.3,0.4-0.7,0.8-1.1,1.2c-0.4,0.4-0.8,0.6-1.2,0.6c-0.2,0-0.4,0-0.7-0.1c-0.3-0.1-0.6-0.2-0.9-0.3
					c-0.3-0.1-0.5-0.3-0.7-0.6c-0.1-1.4-0.1-2.9-0.1-4.5c0-1.6,0.1-4,0.2-7.2c0.1-3.2,0.2-5.6,0.2-7.2c0-2.1-0.1-4.1-0.2-5.9
					c0,0-0.4-0.4-1.1-1.1c-0.4-0.4-0.6-0.8-0.6-1.2c0-0.2,0-0.3,0.1-0.5c0.2-0.4,0.5-0.6,1.1-0.7c0.4-0.1,0.9-0.1,1.3-0.1
					c2.8,0.6,5.7,2.1,8.7,4.7c0.8,0.7,1.4,1.4,1.9,2.1c1.6,2.3,2.4,4.5,2.4,6.6C278.3,152.3,278.1,153.3,277.7,154.3z M274.1,149
					c-0.3-2.1-2.1-3.9-5.3-5.5c-0.2,5.5-0.3,11.4-0.2,17.6c3.7-3.7,5.6-7.3,5.6-10.7C274.2,149.9,274.1,149.4,274.1,149z"/>
				<path fill="#292929" d="M298.5,162.9c0.2,0.5,0.3,1,0.3,1.4c0,0.7-0.3,1.2-0.8,1.7c-0.6,0.5-0.9,0.7-1.1,0.7
					c-1.6-0.3-2.6-1.6-3.1-3.9c-0.5-2.5-1-4.6-1.6-6.3c-1.1,0.1-2.2,0.2-3.4,0.3c-1.3,0.2-2.3,0.6-3,1.2c-0.4,1-0.8,2.8-1.4,5.5
					c-0.6,2.4-1.1,4.2-1.6,5.5c-0.3,0.6-0.8,0.8-1.7,0.5c-1.1-0.4-1.7-0.9-1.7-1.5c-0.1-1.3,0.3-2.9,1.1-5.1c1-2.4,1.5-4.1,1.6-5.2
					c0-0.3-0.2-0.6-0.6-1c-0.5-0.4-0.7-0.6-0.7-0.8c0-0.2,0.1-0.3,0.2-0.5c0.1-0.2,0.5-0.3,1-0.4c0.5-0.1,0.9-0.3,0.9-0.5
					c0.6-1.7,1.5-4.7,2.8-9.2c1.1-3.9,2.1-6.9,2.9-9c0.2-0.5,0.6-0.7,1.2-0.7c0.5,0,0.9,0.1,1.2,0.4c0.9,0.8,1.5,2,1.8,3.6
					c0.2,1.4,0.4,2.7,0.5,4.1C295,151.4,296.7,157.8,298.5,162.9z M291.3,153.4c-0.1-1.2-0.3-2.6-0.6-4.1c-0.3-1.3-0.6-2.6-0.9-4
					c-1,2.7-1.9,5.5-2.6,8.2C287.7,153.4,289,153.4,291.3,153.4z"/>
				<path fill="#292929" d="M316.4,135.9c-0.9,3.7-2.6,8.6-5.1,14.6c-2.9,7-4.8,11.8-5.6,14.4c-0.2,0.5-0.2,1.2-0.2,2
					c0,1.1,0,1.8,0,2.1c-0.1,1.2-0.7,1.7-1.8,1.7c-0.6,0.1-1.2-0.1-1.8-0.6c-0.6-0.4-1-0.9-0.9-1.4c0.1-2.4,0.7-5.2,1.8-8.3
					c1-2.6,2-5.3,3.1-7.9c-2.3-6.3-4.3-10.9-6-13.8c-0.1-0.2-0.1-0.3-0.1-0.5c0-0.4,0.2-0.7,0.6-1c0.4-0.3,0.8-0.5,1.2-0.5
					c0.1,0,0.7,0.2,1.9,0.5c0.8,1.3,1.7,2.9,2.6,4.9c0.8,1.7,1.5,3.4,2.2,5.1c0.7-2,1.3-3.9,2-5.9c0.8-2.3,1.6-4.2,2.5-5.7
					c0.3-0.5,0.7-0.7,1.4-0.7C315,134.9,315.8,135.3,316.4,135.9z"/>
				<rect x="146.2" y="404.6" fill="#292929" width="210.6" height="3"/>
				<rect x="146.2" y="369.2" fill="#292929" width="210.6" height="3"/>
				<rect x="146.2" y="440" fill="#292929" width="210.6" height="3"/>
				<rect x="146.2" y="333.8" fill="#292929" width="210.6" height="3"/>
				<rect x="146.2" y="298.3" fill="#292929" width="210.6" height="3"/>
				<rect x="146.2" y="262.9" fill="#292929" width="210.6" height="3"/>
				<rect x="146.2" y="227.5" fill="#292929" width="210.6" height="3"/>
			</g>
			<g>
				<g>
					<path fill="#F26522" d="M700,493V109.1c0-11.5-9.3-20.8-20.8-20.8H421.8c-11.5,0-20.8,9.3-20.8,20.8V493
						c0,11.5,9.3,20.8,20.8,20.8h257.3C690.7,513.8,700,504.5,700,493z"/>
					<path fill="#292929" d="M679.2,515.3H421.8c-12.3,0-22.3-10-22.3-22.3V109.1c0-12.3,10-22.3,22.3-22.3h257.3
						c12.3,0,22.3,10,22.3,22.3V493C701.5,505.3,691.5,515.3,679.2,515.3z M421.8,89.7c-10.7,0-19.3,8.7-19.3,19.3V493
						c0,10.7,8.7,19.3,19.3,19.3h257.3c10.7,0,19.3-8.7,19.3-19.3V109.1c0-10.7-8.7-19.3-19.3-19.3H421.8z"/>
				</g>
				<g>
					<path fill="#FFFFFF" d="M422.4,471.6V130.5c0-11.5,9.3-20.8,20.8-20.8h214.5c11.5,0,20.8,9.3,20.8,20.8v341.1
						c0,11.5-9.3,20.8-20.8,20.8H443.3C431.8,492.4,422.4,483.1,422.4,471.6z"/>
					<path fill="#292929" d="M657.7,493.9H443.3c-12.3,0-22.3-10-22.3-22.3V130.5c0-12.3,10-22.3,22.3-22.3h214.5
						c12.3,0,22.3,10,22.3,22.3v341.1C680.1,483.9,670.1,493.9,657.7,493.9z M443.3,111.1c-10.7,0-19.3,8.7-19.3,19.3v341.1
						c0,10.7,8.7,19.3,19.3,19.3h214.5c10.7,0,19.3-8.7,19.3-19.3V130.5c0-10.7-8.7-19.3-19.3-19.3H443.3z"/>
				</g>
				<g>
					<rect x="457" y="176.4" fill="#292929" width="187" height="3"/>
				</g>
				<g>
					<path fill="#292929" d="M518.8,134.3c-0.3,1.2-0.9,1.9-1.7,2.1c-2.1,0.5-5.9,1.2-11.2,2.1c-0.7,8.2-1,15.1-1,20.6
						c0,2.1,0,4.1,0.1,6.1c0,0.6,0,1.1-0.1,1.4c-0.2,0.5-0.5,0.8-1,0.7c-1,0-1.8-0.4-2.4-1.2c-0.6-0.8-1-1.6-1-2.6
						c-0.1-1.2-0.1-2.5-0.1-3.9c0-2.2,0.1-5.6,0.4-10.4c0.3-4.5,0.4-8,0.4-10.4c-0.9-0.1-2.1,0-3.7,0.2c-1.8,0.3-3.1,0.4-3.8,0.4
						c-1.6,0-2.9-0.4-4-1.3c-0.4-0.9-0.6-1.3-0.6-1.3c0-0.2,0.1-0.5,0.3-0.8c1.1-0.4,3.2-0.7,6.5-1c2.9-0.3,5-0.8,6.4-1.6
						c1.2,0.4,2.5,0.6,4,0.6c1.5,0,2.9-0.2,4.3-0.5c0.4,0,1.4-0.3,3-0.7c1.2-0.3,2.2-0.4,3-0.3c0.6,0,0.8,0.2,0.7,0.7
						C518.3,133.5,518.8,133.8,518.8,134.3z"/>
					<path fill="#292929" d="M530,138.2c-0.2,2.3-0.9,5.4-2,9.3c-1.5,5.2-2.3,8.3-2.6,9.4c-0.7,3.3-2.1,6.4-4.2,9.1
						c-1.3,1.8-2.8,2.6-4.5,2.6c-1.5,0-2.6-1-3.3-2.8c-1.3-3.1-1.9-6.8-1.9-11c0-2.4,0.2-5.5,0.7-9.3c0,0.3,0-0.7,0-3.1
						c0-2,0.8-3.1,2.4-3.1c0.3,0,0.7,0.1,1.1,0.3c0.4,0.2,0.8,0.4,1.1,0.6c0,1.7,0,4.2-0.1,7.4c-0.2,3.5-0.2,6-0.2,7.6
						c0,1.7,0,3.2,0.1,4.5c0.1,0.7,0.4,2,0.9,4c1.4-1.6,2.5-3.6,3.3-6.2c0.3-0.9,0.8-3.2,1.6-7c0.6-2.9,1.3-5.2,2.1-6.8
						c0.2-0.5,0.4-1.3,0.6-2.6c0.2-1.3,0.4-2.2,0.6-2.7c0.4-0.8,1-1.2,1.9-1.2C528.6,137.1,529.5,137.5,530,138.2z"/>
					<path fill="#292929" d="M548.5,140.4c-1.2,0.5-3,1.1-5.4,1.7c-2.4,0.7-4.2,1.2-5.4,1.7c-0.3,0.9-0.5,2.8-0.6,5.8
						c0.5,0.2,1.1,0.3,1.8,0.3c0.5,0,1.3-0.1,2.3-0.2c1.1-0.2,1.8-0.2,2.3-0.2c0.9,0,1.7,0.2,2.4,0.6c0.5,0.7,0.7,1.1,0.7,1.3
						c0,0.2-0.1,0.4-0.3,0.5c-0.1,0-0.3,0.3-0.7,0.7c-0.3,0.3-0.6,0.4-1,0.4c-0.7,0.2-2,0.3-3.8,0.3c-1.6,0-2.8,0.2-3.7,0.6
						c-0.6,2.4-0.9,4.4-0.9,5.8c0,1,0.1,1.7,0.4,2.3c1.6,1.1,4.2,1.6,8.1,1.4c0.3,0,0.5-0.1,0.8-0.4c0.3-0.2,0.5-0.4,0.7-0.4
						c0.9-0.2,1.5,0.5,1.8,2.1c0.1,0.5,0,1-0.3,1.5c-0.3,0.4-0.7,0.7-1.2,0.7c-4,0.1-7.5-0.2-10.4-0.9c-0.9-0.2-1.8-0.7-2.5-1.5
						c-0.8-0.8-1.2-1.7-1.3-2.7c-0.3-2.9-0.3-5.5,0-7.7c-0.9-0.6-1.3-1.2-1.2-1.8c0-0.3,0.3-0.6,0.8-0.8c0.5-0.2,0.8-0.5,0.8-0.8
						c0.1-0.3,0.2-1.8,0.4-4.7c-1.9-0.4-2.8-1.1-2.7-2.1c0-1,0.6-1.7,1.7-2.3c1.1-0.4,2.1-0.9,3.2-1.3c1.3-0.6,2.8-1.2,4.7-1.7
						c1.6-0.4,3.2-0.8,4.8-1.2c0.2,0,0.4,0,0.6,0c0.9,0,1.9,0.3,3.1,1c0,0.1,0.1,0.4,0.2,0.7c0.1,0.4,0.2,0.6,0.2,0.8
						C548.8,140.1,548.7,140.3,548.5,140.4z"/>
					<path fill="#292929" d="M560.2,135.2c0,0.7-0.5,1.2-1.4,1.7c-0.3,0.1-0.5,0.1-0.8,0c-0.5-0.1-0.7-0.2-0.7-0.2
						c-0.2,0-0.4,0.1-0.6,0.3c-1.8,1.8-2.7,4-2.7,6.5c0,1,0.1,1.9,0.4,2.7c0.1,0.4,1.4,2.9,3.8,7.7c1.6,3.2,2.4,5.9,2.4,8.1
						c0,1.8-0.4,3.6-1.3,5.3c-0.3,0.6-1,1.3-2.2,2.2c-1,0.7-1.8,1-2.6,1c-0.3,0-0.6,0-0.8-0.1c-1-0.4-1.5-1-1.5-1.6
						c0-0.4,0.2-0.9,0.7-1.4c0.1-0.2,0.4-0.3,0.9-0.3c0.5,0,0.8-0.2,1-0.6c0.7-1.5,1-2.9,1-4.5c0-2.1-1.1-5.3-3.2-9.3
						c-2.1-4.1-3.2-7.3-3.2-9.8c0-2,0.4-3.8,1.2-5.4c0.9-1.8,2.2-3.1,3.8-3.9c0.8-0.4,1.5-0.5,2.2-0.5c1.4,0,2.4,0.4,3.1,1.1
						C560,134.5,560.2,134.9,560.2,135.2z"/>
					<path fill="#292929" d="M577.7,154.3c-0.3,0.8-0.6,1.5-0.9,2.3c-0.4,0.9-0.8,1.6-1.3,2.1c-1,1.3-2,2.6-3.1,3.8
						c-1.2,1.5-2.3,2.6-3.3,3.2c-0.3,0.4-0.7,0.8-1.1,1.2c-0.4,0.4-0.8,0.6-1.2,0.6c-0.2,0-0.4,0-0.7-0.1c-0.3-0.1-0.6-0.2-0.9-0.3
						c-0.3-0.1-0.5-0.3-0.7-0.6c-0.1-1.4-0.1-2.9-0.1-4.5c0-1.6,0.1-4,0.2-7.2c0.1-3.2,0.2-5.6,0.2-7.2c0-2.1-0.1-4.1-0.2-5.9
						c0,0-0.4-0.4-1.1-1.1c-0.4-0.4-0.6-0.8-0.6-1.2c0-0.2,0-0.3,0.1-0.5c0.2-0.4,0.5-0.6,1.1-0.7c0.4-0.1,0.9-0.1,1.3-0.1
						c2.8,0.6,5.7,2.1,8.7,4.7c0.8,0.7,1.4,1.4,1.9,2.1c1.6,2.3,2.4,4.5,2.4,6.6C578.3,152.3,578.1,153.3,577.7,154.3z M574.1,149
						c-0.3-2.1-2.1-3.9-5.3-5.5c-0.2,5.5-0.3,11.4-0.2,17.6c3.7-3.7,5.6-7.3,5.6-10.7C574.2,149.9,574.2,149.4,574.1,149z"/>
					<path fill="#292929" d="M598.5,162.9c0.2,0.5,0.3,1,0.3,1.4c0,0.7-0.3,1.2-0.8,1.7c-0.6,0.5-0.9,0.7-1.1,0.7
						c-1.6-0.3-2.6-1.6-3.1-3.9c-0.5-2.5-1-4.6-1.6-6.3c-1.1,0.1-2.2,0.2-3.4,0.3c-1.3,0.2-2.3,0.6-3,1.2c-0.4,1-0.8,2.8-1.4,5.5
						c-0.6,2.4-1.1,4.2-1.6,5.5c-0.3,0.6-0.8,0.8-1.7,0.5c-1.1-0.4-1.7-0.9-1.7-1.5c-0.1-1.3,0.3-2.9,1.1-5.1c1-2.4,1.5-4.1,1.6-5.2
						c0-0.3-0.2-0.6-0.6-1c-0.5-0.4-0.7-0.6-0.7-0.8c0-0.2,0.1-0.3,0.2-0.5c0.1-0.2,0.5-0.3,1-0.4c0.5-0.1,0.9-0.3,0.9-0.5
						c0.6-1.7,1.5-4.7,2.8-9.2c1.1-3.9,2.1-6.9,2.9-9c0.2-0.5,0.6-0.7,1.2-0.7c0.5,0,0.9,0.1,1.2,0.4c0.9,0.8,1.5,2,1.8,3.6
						c0.2,1.4,0.4,2.7,0.5,4.1C595,151.4,596.8,157.8,598.5,162.9z M591.3,153.4c-0.1-1.2-0.3-2.6-0.6-4.1c-0.3-1.3-0.6-2.6-0.9-4
						c-1,2.7-1.9,5.5-2.6,8.2C587.7,153.4,589,153.4,591.3,153.4z"/>
					<path fill="#292929" d="M616.4,135.9c-0.9,3.7-2.6,8.6-5.1,14.6c-2.9,7-4.8,11.8-5.6,14.4c-0.2,0.5-0.2,1.2-0.2,2
						c0,1.1,0,1.8,0,2.1c-0.1,1.2-0.7,1.7-1.8,1.7c-0.6,0.1-1.2-0.1-1.8-0.6c-0.6-0.4-1-0.9-0.9-1.4c0.1-2.4,0.7-5.2,1.8-8.3
						c1-2.6,2-5.3,3.1-7.9c-2.3-6.3-4.3-10.9-6-13.8c-0.1-0.2-0.1-0.3-0.1-0.5c0-0.4,0.2-0.7,0.6-1c0.4-0.3,0.8-0.5,1.2-0.5
						c0.1,0,0.7,0.2,1.9,0.5c0.8,1.3,1.7,2.9,2.6,4.9c0.8,1.7,1.5,3.4,2.2,5.1c0.7-2,1.3-3.9,2-5.9c0.8-2.3,1.6-4.2,2.5-5.7
						c0.3-0.5,0.7-0.7,1.4-0.7C615,134.9,615.8,135.3,616.4,135.9z"/>
				</g>
				<g>
					<g>
						<rect x="445.2" y="404.6" fill="#292929" width="210.6" height="3"/>
					</g>
					<g>
						<rect x="445.2" y="369.2" fill="#292929" width="210.6" height="3"/>
					</g>
					<g>
						<rect x="445.2" y="440" fill="#292929" width="210.6" height="3"/>
					</g>
					<g>
						<rect x="445.2" y="333.8" fill="#292929" width="210.6" height="3"/>
					</g>
					<g>
						<rect x="445.2" y="298.3" fill="#292929" width="210.6" height="3"/>
					</g>
					<g>
						<rect x="445.2" y="262.9" fill="#292929" width="210.6" height="3"/>
					</g>
					<g>
						<rect x="445.2" y="227.5" fill="#292929" width="210.6" height="3"/>
					</g>
				</g>
			</g>
			<g>
				<g>
					<path fill="#FFDE17" d="M999,493V109.1c0-11.5-9.3-20.8-20.8-20.8H720.8c-11.5,0-20.8,9.3-20.8,20.8V493
						c0,11.5,9.3,20.8,20.8,20.8h257.3C989.7,513.8,999,504.5,999,493z"/>
					<path fill="#292929" d="M978.2,515.3H720.8c-12.3,0-22.3-10-22.3-22.3V109.1c0-12.3,10-22.3,22.3-22.3h257.3
						c12.3,0,22.3,10,22.3,22.3V493C1000.5,505.3,990.5,515.3,978.2,515.3z M720.8,89.7c-10.7,0-19.3,8.7-19.3,19.3V493
						c0,10.7,8.7,19.3,19.3,19.3h257.3c10.7,0,19.3-8.7,19.3-19.3V109.1c0-10.7-8.7-19.3-19.3-19.3H720.8z"/>
				</g>
				<g>
					<path fill="#FFFFFF" d="M721.4,471.6V130.5c0-11.5,9.3-20.8,20.8-20.8h214.5c11.5,0,20.8,9.3,20.8,20.8v341.1
						c0,11.5-9.3,20.8-20.8,20.8H742.3C730.8,492.4,721.4,483.1,721.4,471.6z"/>
					<path fill="#292929" d="M956.7,493.9H742.3c-12.3,0-22.3-10-22.3-22.3V130.5c0-12.3,10-22.3,22.3-22.3h214.5
						c12.3,0,22.3,10,22.3,22.3v341.1C979.1,483.9,969,493.9,956.7,493.9z M742.3,111.1c-10.7,0-19.3,8.7-19.3,19.3v341.1
						c0,10.7,8.7,19.3,19.3,19.3h214.5c10.7,0,19.3-8.7,19.3-19.3V130.5c0-10.7-8.7-19.3-19.3-19.3H742.3z"/>
				</g>
				<g>
					<rect x="757.6" y="176.4" fill="#292929" width="187" height="3"/>
				</g>
				<g>
					<path fill="#292929" d="M787.3,139.7c0.8,0.4,1.1,0.9,1.1,1.6c0,0.5-0.2,1.1-0.6,1.9c-0.5,1.1-0.8,1.7-0.8,1.8
						c-0.8,2.4-1.5,6.2-2.3,11.2c-0.7,5-1.4,8.7-2.2,11c-0.2,0.7-0.8,1-1.7,1c-0.4,0-0.8-0.1-1.1-0.2c-1.2-0.6-2.1-1.9-2.6-3.7
						c0-0.2-0.3-1.8-0.9-5c-0.3-1.7-0.6-3.4-0.8-5.3c-0.5,0.9-1.1,3.2-1.8,6.9c-0.7,3.2-1.4,5.2-2.3,6c-0.3,0.3-0.7,0.3-1.4,0.1
						c-1-0.1-1.7-0.7-2-1.8c-0.2-0.9-0.4-1.9-0.6-2.8c-0.6-2.4-1.1-6.1-1.4-11.1c-0.3-5-0.8-8.7-1.4-11c-0.1-0.4,0-0.8,0.1-1.1
						c0.2-0.4,0.5-0.6,0.8-0.6c0.3-0.1,0.5-0.1,0.8-0.1c0.9,0,1.6,0.4,2.1,1.2c0.5,2.8,1.2,8.2,1.9,16.2c0.3-0.6,0.6-1.6,0.9-3.1
						c0.3-1.5,0.7-2.7,1-3.3c0.3-1.3,0.6-2.5,0.8-3.8c0.4-1.5,1.2-2.3,2.5-2.3c0.3,0,0.7,0,1.1,0.1c0,0.2,0.2,0.3,0.4,0.3
						c0.3,0,0.4,0.1,0.4,0.1c0.7,1.6,1.3,3.8,1.6,6.5c0.6,3.8,0.9,6,1,6.6c0.5-2.9,1.1-5.9,1.6-8.8c0.7-3.4,1.6-6.2,2.7-8.3
						c0.2-0.4,0.7-0.6,1.4-0.6C786.4,139.4,786.9,139.5,787.3,139.7z"/>
					<path fill="#292929" d="M807.5,140.4c-1.2,0.5-3,1.1-5.4,1.7c-2.4,0.7-4.2,1.2-5.4,1.7c-0.3,0.9-0.5,2.8-0.6,5.8
						c0.5,0.2,1.1,0.3,1.8,0.3c0.5,0,1.3-0.1,2.3-0.2c1.1-0.2,1.8-0.2,2.3-0.2c0.9,0,1.7,0.2,2.4,0.6c0.5,0.7,0.7,1.1,0.7,1.3
						c0,0.2-0.1,0.4-0.3,0.5c-0.1,0-0.3,0.3-0.7,0.7c-0.3,0.3-0.6,0.4-1,0.4c-0.7,0.2-2,0.3-3.8,0.3c-1.6,0-2.8,0.2-3.7,0.6
						c-0.6,2.4-0.9,4.4-0.9,5.8c0,1,0.1,1.7,0.4,2.3c1.6,1.1,4.2,1.6,8.1,1.4c0.3,0,0.5-0.1,0.8-0.4c0.3-0.2,0.5-0.4,0.7-0.4
						c0.9-0.2,1.5,0.5,1.8,2.1c0.1,0.5,0,1-0.3,1.5c-0.3,0.4-0.7,0.7-1.2,0.7c-4,0.1-7.5-0.2-10.4-0.9c-0.9-0.2-1.8-0.7-2.5-1.5
						c-0.8-0.8-1.2-1.7-1.3-2.7c-0.3-2.9-0.3-5.5,0-7.7c-0.9-0.6-1.3-1.2-1.2-1.8c0-0.3,0.3-0.6,0.8-0.8c0.5-0.2,0.8-0.5,0.8-0.8
						c0.1-0.3,0.2-1.8,0.4-4.7c-1.9-0.4-2.8-1.1-2.7-2.1c0-1,0.6-1.7,1.7-2.3c1.1-0.4,2.1-0.9,3.2-1.3c1.3-0.6,2.8-1.2,4.7-1.7
						c1.6-0.4,3.2-0.8,4.8-1.2c0.2,0,0.4,0,0.6,0c0.9,0,1.9,0.3,3.1,1c0,0.1,0.1,0.4,0.2,0.7c0.1,0.4,0.2,0.6,0.2,0.8
						C807.9,140.1,807.8,140.3,807.5,140.4z"/>
					<path fill="#292929" d="M823,154.3c-0.3,0.8-0.6,1.5-0.9,2.3c-0.4,0.9-0.8,1.6-1.3,2.1c-1,1.3-2,2.6-3.1,3.8
						c-1.2,1.5-2.3,2.6-3.3,3.2c-0.3,0.4-0.7,0.8-1.1,1.2c-0.4,0.4-0.8,0.6-1.2,0.6c-0.2,0-0.4,0-0.7-0.1c-0.3-0.1-0.6-0.2-0.9-0.3
						c-0.3-0.1-0.5-0.3-0.7-0.6c-0.1-1.4-0.1-2.9-0.1-4.5c0-1.6,0.1-4,0.2-7.2c0.1-3.2,0.2-5.6,0.2-7.2c0-2.1-0.1-4.1-0.2-5.9
						c0,0-0.4-0.4-1.1-1.1c-0.4-0.4-0.6-0.8-0.6-1.2c0-0.2,0-0.3,0.1-0.5c0.2-0.4,0.5-0.6,1.1-0.7c0.4-0.1,0.9-0.1,1.3-0.1
						c2.8,0.6,5.7,2.1,8.7,4.7c0.8,0.7,1.4,1.4,1.9,2.1c1.6,2.3,2.4,4.5,2.4,6.6C823.6,152.3,823.4,153.3,823,154.3z M819.4,149
						c-0.3-2.1-2.1-3.9-5.3-5.5c-0.2,5.5-0.3,11.4-0.2,17.6c3.7-3.7,5.6-7.3,5.6-10.7C819.5,149.9,819.5,149.4,819.4,149z"/>
					<path fill="#292929" d="M847,135.2c-0.5,4.4-0.9,8.9-1.3,13.3c-0.6,5.3-0.8,9.7-0.8,13.2c0,1.2,0,2.3,0.1,3.4
						c0,0.5-0.2,1-0.6,1.4c-0.4,0.4-0.9,0.6-1.4,0.6c-1,0-1.9-0.7-2.6-2.1c-2.1-4.1-4.7-10.6-7.9-19.4c-0.1-0.2-0.1-0.3-0.2-0.3
						c-0.2,0-0.4,0.2-0.4,0.7c-0.6,4.7-0.8,9.7-0.8,14.9c0,2.5,0.1,5.1,0.2,7.7c0,1-0.2,1.6-0.8,2c-0.2,0.2-0.5,0.3-0.7,0.3
						c-0.2,0-0.5-0.1-0.9-0.3c-0.5-0.2-0.8-0.4-0.9-0.4c-0.4-0.1-0.7-0.5-0.8-1.2c0-0.5-0.1-1.1-0.1-1.6c-0.1-1.9-0.1-3.8-0.1-5.8
						c0-3.5,0.2-7.9,0.6-13.1c0.6-8,1-12.4,1-13.3c0-0.7,0.6-1.1,1.8-1.1c0.6-0.1,1.4,0.3,2.5,1.2c1.1,2,2.4,5.3,3.9,9.8
						c1.5,4.3,2.8,7.6,4.1,9.9c0.5-4.4,1.3-11,2.3-19.9c0.1-0.7,0.6-1,1.4-1c0.3,0,0.6,0,1,0.1c0.5,0.1,0.8,0.2,0.9,0.2
						C846.7,134.6,846.9,134.9,847,135.2z"/>
					<path fill="#292929" d="M866.6,140.4c-1.2,0.5-3,1.1-5.4,1.7c-2.4,0.7-4.2,1.2-5.4,1.7c-0.3,0.9-0.5,2.8-0.6,5.8
						c0.5,0.2,1.1,0.3,1.8,0.3c0.5,0,1.3-0.1,2.3-0.2c1.1-0.2,1.8-0.2,2.3-0.2c0.9,0,1.7,0.2,2.4,0.6c0.5,0.7,0.7,1.1,0.7,1.3
						c0,0.2-0.1,0.4-0.3,0.5c-0.1,0-0.3,0.3-0.7,0.7c-0.3,0.3-0.6,0.4-1,0.4c-0.7,0.2-2,0.3-3.8,0.3c-1.6,0-2.8,0.2-3.7,0.6
						c-0.6,2.4-0.9,4.4-0.9,5.8c0,1,0.1,1.7,0.4,2.3c1.6,1.1,4.2,1.6,8.1,1.4c0.3,0,0.5-0.1,0.8-0.4c0.3-0.2,0.5-0.4,0.7-0.4
						c0.9-0.2,1.5,0.5,1.8,2.1c0.1,0.5,0,1-0.3,1.5c-0.3,0.4-0.7,0.7-1.2,0.7c-4,0.1-7.5-0.2-10.4-0.9c-0.9-0.2-1.8-0.7-2.5-1.5
						c-0.8-0.8-1.2-1.7-1.3-2.7c-0.3-2.9-0.3-5.5,0-7.7c-0.9-0.6-1.3-1.2-1.2-1.8c0-0.3,0.3-0.6,0.8-0.8c0.5-0.2,0.8-0.5,0.8-0.8
						c0.1-0.3,0.2-1.8,0.4-4.7c-1.9-0.4-2.8-1.1-2.7-2.1c0-1,0.6-1.7,1.7-2.3c1.1-0.4,2.1-0.9,3.2-1.3c1.3-0.6,2.8-1.2,4.7-1.7
						c1.6-0.4,3.2-0.8,4.8-1.2c0.2,0,0.4,0,0.6,0c0.9,0,1.9,0.3,3.1,1c0,0.1,0.1,0.4,0.2,0.7c0.1,0.4,0.2,0.6,0.2,0.8
						C866.9,140.1,866.8,140.3,866.6,140.4z"/>
					<path fill="#292929" d="M878.3,135.2c0,0.7-0.5,1.2-1.4,1.7c-0.3,0.1-0.5,0.1-0.8,0c-0.5-0.1-0.7-0.2-0.7-0.2
						c-0.2,0-0.4,0.1-0.6,0.3c-1.8,1.8-2.7,4-2.7,6.5c0,1,0.1,1.9,0.4,2.7c0.1,0.4,1.4,2.9,3.8,7.7c1.6,3.2,2.4,5.9,2.4,8.1
						c0,1.8-0.4,3.6-1.3,5.3c-0.3,0.6-1,1.3-2.2,2.2c-1,0.7-1.8,1-2.6,1c-0.3,0-0.6,0-0.8-0.1c-1-0.4-1.5-1-1.5-1.6
						c0-0.4,0.2-0.9,0.7-1.4c0.1-0.2,0.4-0.3,0.9-0.3c0.5,0,0.8-0.2,1-0.6c0.7-1.5,1-2.9,1-4.5c0-2.1-1.1-5.3-3.2-9.3
						c-2.1-4.1-3.2-7.3-3.2-9.8c0-2,0.4-3.8,1.2-5.4c0.9-1.8,2.2-3.1,3.8-3.9c0.8-0.4,1.5-0.5,2.2-0.5c1.4,0,2.4,0.4,3.1,1.1
						C878.1,134.5,878.3,134.9,878.3,135.2z"/>
					<path fill="#292929" d="M895.8,154.3c-0.3,0.8-0.6,1.5-0.9,2.3c-0.4,0.9-0.8,1.6-1.3,2.1c-1,1.3-2,2.6-3.1,3.8
						c-1.2,1.5-2.3,2.6-3.3,3.2c-0.3,0.4-0.7,0.8-1.1,1.2c-0.4,0.4-0.8,0.6-1.2,0.6c-0.2,0-0.4,0-0.7-0.1c-0.3-0.1-0.6-0.2-0.9-0.3
						c-0.3-0.1-0.5-0.3-0.7-0.6c-0.1-1.4-0.1-2.9-0.1-4.5c0-1.6,0.1-4,0.2-7.2c0.1-3.2,0.2-5.6,0.2-7.2c0-2.1-0.1-4.1-0.2-5.9
						c0,0-0.4-0.4-1.1-1.1c-0.4-0.4-0.6-0.8-0.6-1.2c0-0.2,0-0.3,0.1-0.5c0.2-0.4,0.5-0.6,1.1-0.7c0.4-0.1,0.9-0.1,1.3-0.1
						c2.8,0.6,5.7,2.1,8.7,4.7c0.8,0.7,1.4,1.4,1.9,2.1c1.6,2.3,2.4,4.5,2.4,6.6C896.4,152.3,896.2,153.3,895.8,154.3z M892.2,149
						c-0.3-2.1-2.1-3.9-5.3-5.5c-0.2,5.5-0.3,11.4-0.2,17.6c3.7-3.7,5.6-7.3,5.6-10.7C892.3,149.9,892.3,149.4,892.2,149z"/>
					<path fill="#292929" d="M916.7,162.9c0.2,0.5,0.3,1,0.3,1.4c0,0.7-0.3,1.2-0.8,1.7c-0.6,0.5-0.9,0.7-1.1,0.7
						c-1.6-0.3-2.6-1.6-3.1-3.9c-0.5-2.5-1-4.6-1.6-6.3c-1.1,0.1-2.2,0.2-3.4,0.3c-1.3,0.2-2.3,0.6-3,1.2c-0.4,1-0.8,2.8-1.4,5.5
						c-0.6,2.4-1.1,4.2-1.6,5.5c-0.3,0.6-0.8,0.8-1.7,0.5c-1.1-0.4-1.7-0.9-1.7-1.5c-0.1-1.3,0.3-2.9,1.1-5.1c1-2.4,1.5-4.1,1.6-5.2
						c0-0.3-0.2-0.6-0.6-1c-0.5-0.4-0.7-0.6-0.7-0.8c0-0.2,0.1-0.3,0.2-0.5c0.1-0.2,0.5-0.3,1-0.4c0.5-0.1,0.9-0.3,0.9-0.5
						c0.6-1.7,1.5-4.7,2.8-9.2c1.1-3.9,2.1-6.9,2.9-9c0.2-0.5,0.6-0.7,1.2-0.7c0.5,0,0.9,0.1,1.2,0.4c0.9,0.8,1.5,2,1.8,3.6
						c0.2,1.4,0.4,2.7,0.5,4.1C913.2,151.4,914.9,157.8,916.7,162.9z M909.4,153.4c-0.1-1.2-0.3-2.6-0.6-4.1c-0.3-1.3-0.6-2.6-0.9-4
						c-1,2.7-1.9,5.5-2.6,8.2C905.8,153.4,907.2,153.4,909.4,153.4z"/>
					<path fill="#292929" d="M934.6,135.9c-0.9,3.7-2.6,8.6-5.1,14.6c-2.9,7-4.8,11.8-5.6,14.4c-0.2,0.5-0.2,1.2-0.2,2
						c0,1.1,0,1.8,0,2.1c-0.1,1.2-0.7,1.7-1.8,1.7c-0.6,0.1-1.2-0.1-1.8-0.6c-0.6-0.4-1-0.9-0.9-1.4c0.1-2.4,0.7-5.2,1.8-8.3
						c1-2.6,2-5.3,3.1-7.9c-2.3-6.3-4.3-10.9-6-13.8c-0.1-0.2-0.1-0.3-0.1-0.5c0-0.4,0.2-0.7,0.6-1c0.4-0.3,0.8-0.5,1.2-0.5
						c0.1,0,0.7,0.2,1.9,0.5c0.8,1.3,1.7,2.9,2.6,4.9c0.8,1.7,1.5,3.4,2.2,5.1c0.7-2,1.3-3.9,2-5.9c0.8-2.3,1.6-4.2,2.5-5.7
						c0.3-0.5,0.7-0.7,1.4-0.7C933.2,134.9,933.9,135.3,934.6,135.9z"/>
				</g>
				<g>
					<g>
						<rect x="744.2" y="404.6" fill="#292929" width="210.6" height="3"/>
					</g>
					<g>
						<rect x="744.2" y="369.2" fill="#292929" width="210.6" height="3"/>
					</g>
					<g>
						<rect x="744.2" y="440" fill="#292929" width="210.6" height="3"/>
					</g>
					<g>
						<rect x="744.2" y="333.8" fill="#292929" width="210.6" height="3"/>
					</g>
					<g>
						<rect x="744.2" y="298.3" fill="#292929" width="210.6" height="3"/>
					</g>
					<g>
						<rect x="744.2" y="262.9" fill="#292929" width="210.6" height="3"/>
					</g>
					<g>
						<rect x="744.2" y="227.5" fill="#292929" width="210.6" height="3"/>
					</g>
				</g>
			</g>
			<g>
				<g>
					<path fill="#00A14B" d="M999,109.1V493c0,11.5,9.3,20.8,20.8,20.8h257.3c11.5,0,20.8-9.3,20.8-20.8V109.1
						c0-11.5-9.3-20.8-20.8-20.8h-257.3C1008.3,88.2,999,97.5,999,109.1z"/>
					<path fill="#292929" d="M1277.2,515.3h-257.3c-12.3,0-22.3-10-22.3-22.3V109.1c0-12.3,10-22.3,22.3-22.3h257.3
						c12.3,0,22.3,10,22.3,22.3V493C1299.5,505.3,1289.5,515.3,1277.2,515.3z M1019.8,89.7c-10.7,0-19.3,8.7-19.3,19.3V493
						c0,10.7,8.7,19.3,19.3,19.3h257.3c10.7,0,19.3-8.7,19.3-19.3V109.1c0-10.7-8.7-19.3-19.3-19.3H1019.8z"/>
				</g>
				<g>
					<path fill="#FFFFFF" d="M1020.4,471.6V130.5c0-11.5,9.3-20.8,20.8-20.8h214.5c11.5,0,20.8,9.3,20.8,20.8v341.1
						c0,11.5-9.3,20.8-20.8,20.8h-214.5C1029.8,492.4,1020.4,483.1,1020.4,471.6z"/>
					<path fill="#292929" d="M1255.7,493.9h-214.5c-12.3,0-22.3-10-22.3-22.3V130.5c0-12.3,10-22.3,22.3-22.3h214.5
						c12.3,0,22.3,10,22.3,22.3v341.1C1278.1,483.9,1268,493.9,1255.7,493.9z M1041.3,111.1c-10.7,0-19.3,8.7-19.3,19.3v341.1
						c0,10.7,8.7,19.3,19.3,19.3h214.5c10.7,0,19.3-8.7,19.3-19.3V130.5c0-10.7-8.7-19.3-19.3-19.3H1041.3z"/>
				</g>
				<g>
					<rect x="1058.2" y="176.4" fill="#292929" width="187" height="3"/>
				</g>
				<g>
					<path fill="#292929" d="M1109.6,134.3c-0.3,1.2-0.9,1.9-1.7,2.1c-2.1,0.5-5.9,1.2-11.2,2.1c-0.7,8.2-1,15.1-1,20.6
						c0,2.1,0,4.1,0.1,6.1c0,0.6,0,1.1-0.1,1.4c-0.2,0.5-0.5,0.8-1,0.7c-1,0-1.8-0.4-2.4-1.2c-0.6-0.8-1-1.6-1-2.6
						c-0.1-1.2-0.1-2.5-0.1-3.9c0-2.2,0.1-5.6,0.4-10.4c0.3-4.5,0.4-8,0.4-10.4c-0.9-0.1-2.1,0-3.7,0.2c-1.8,0.3-3.1,0.4-3.8,0.4
						c-1.6,0-2.9-0.4-4-1.3c-0.4-0.9-0.6-1.3-0.6-1.3c0-0.2,0.1-0.5,0.3-0.8c1.1-0.4,3.2-0.7,6.5-1c2.9-0.3,5-0.8,6.4-1.6
						c1.2,0.4,2.5,0.6,4,0.6c1.5,0,2.9-0.2,4.3-0.5c0.4,0,1.4-0.3,3-0.7c1.2-0.3,2.2-0.4,3-0.3c0.6,0,0.8,0.2,0.7,0.7
						C1109.2,133.5,1109.6,133.8,1109.6,134.3z"/>
					<path fill="#292929" d="M1120,137.5c-0.1,2.9-0.5,7.6-1.4,14c-0.8,6-1.2,10.7-1.2,13.9c0,1,0,2,0.1,2.9c0,0.2-0.1,0.5-0.3,0.7
						c-0.2,0.2-0.4,0.3-0.7,0.3c-0.9,0-1.5-0.1-1.8-0.2c-1.3-0.7-1.9-2.1-1.9-4.1c0-0.4,0-1,0.1-1.9c0-0.8,0.1-1.5,0.1-1.9
						c0-0.7,0.1-1.7,0.2-3c0.2-1.4,0.2-2.4,0.2-3.1c-0.5,0-1.1,0-1.9-0.2c-0.8-0.2-1.4-0.2-1.8-0.2c-0.4,0-0.8,0.1-1.2,0.2
						c-0.8,2.6-1.3,6.5-1.4,11.6c-1.1,0.5-2.2,0.4-3.3-0.1c-0.8-0.4-1.1-1.2-1.1-2.4c0-0.3,0-0.6,0.1-1.1c0-0.4,0.1-0.7,0.1-0.8
						c0.1-1.8,0.5-5.3,1.1-10.6c0.6-4.4,0.8-8,0.8-10.6c0-0.4,0.3-0.6,0.8-0.7c0.5-0.1,0.8-0.2,0.9-0.3c0.2,0.2,0.7,0.4,1.4,0.6
						c0.6,0.1,1,0.4,1.1,0.9c0.3,0.8,0.4,1.8,0.4,2.8c0,0.7-0.1,1.9-0.3,3.4c-0.2,1.6-0.3,2.8-0.3,3.6c0.4,0.3,0.9,0.5,1.5,0.5
						c0.4,0.1,1,0.1,1.7,0c1-0.1,1.5-0.1,1.7-0.1c0.8-3.5,1.6-8,2.2-13.5c0.1-1.2,0.5-1.7,1.2-1.7
						C1118.8,136.3,1119.8,136.6,1120,137.5z"/>
					<path fill="#292929" d="M1141,138.2c-0.2,2.3-0.9,5.4-2,9.3c-1.5,5.2-2.3,8.3-2.6,9.4c-0.7,3.3-2.1,6.4-4.2,9.1
						c-1.3,1.8-2.8,2.6-4.5,2.6c-1.5,0-2.6-1-3.3-2.8c-1.3-3.1-1.9-6.8-1.9-11c0-2.4,0.2-5.5,0.7-9.3c0,0.3,0-0.7,0-3.1
						c0-2,0.8-3.1,2.4-3.1c0.3,0,0.7,0.1,1.1,0.3c0.4,0.2,0.8,0.4,1.1,0.6c0,1.7,0,4.2-0.1,7.4c-0.2,3.5-0.2,6-0.2,7.6
						c0,1.7,0,3.2,0.1,4.5c0.1,0.7,0.4,2,0.9,4c1.4-1.6,2.5-3.6,3.3-6.2c0.3-0.9,0.8-3.2,1.6-7c0.6-2.9,1.3-5.2,2.1-6.8
						c0.2-0.5,0.4-1.3,0.6-2.6c0.2-1.3,0.4-2.2,0.6-2.7c0.4-0.8,1-1.2,1.9-1.2C1139.6,137.1,1140.5,137.5,1141,138.2z"/>
					<path fill="#292929" d="M1162.6,165.6c0.1,0.1,0.1,0.3,0.1,0.4c0,0.8-0.8,1.3-2.4,1.7c-1.8-1.4-3.9-3.4-6.5-6.2
						c-2.9-3.1-5.1-5.3-6.5-6.5c-0.1,0.9-0.3,3.1-0.5,6.7c-0.2,2.7-0.5,4.9-0.9,6.5c-0.1,0-0.3,0.1-0.6,0.2
						c-0.3,0.2-0.6,0.2-0.9,0.1c-1.5-0.3-2.2-1.3-2.2-3c0-0.5,0.1-1.2,0.2-2c0.1-1,0.2-1.6,0.2-1.8c0.1-1.9,0.2-4.2,0.2-6.8v-5.4
						c0-4.5,0.2-8.3,0.7-11.4c0.3-2,2.3-3,5.8-2.8c1.8,0.1,3.3,1,4.7,2.7c1.2,1.6,1.8,3.3,1.8,5.2c0,1.6-0.6,3.1-1.7,4.7
						c-1,1.4-2.2,2.5-3.7,3.3c-0.6,0.3-0.9,0.7-0.9,1.1c0,0.4,0.3,0.9,1,1.5c0.5,0.4,1.1,0.9,1.6,1.3c0,0,1.9,1.7,5.5,5
						C1160,162.1,1161.7,164,1162.6,165.6z M1152.2,143.3c0.1-0.6,0.1-1.1,0.1-1.6c-0.1-0.7-0.4-1.3-0.9-1.9
						c-0.5-0.6-1.2-0.8-2.3-0.8c-0.8,0-1.3,0.2-1.5,0.7c-0.2,0.8-0.2,1.8-0.2,2.8c0,0.4,0,1.5,0.1,3.3c0.1,1.4,0.1,2.5,0,3.3
						C1150.2,147.2,1151.8,145.2,1152.2,143.3z"/>
					<path fill="#292929" d="M1170.7,135.2c0,0.7-0.5,1.2-1.4,1.7c-0.3,0.1-0.5,0.1-0.8,0c-0.5-0.1-0.7-0.2-0.7-0.2
						c-0.2,0-0.4,0.1-0.6,0.3c-1.8,1.8-2.7,4-2.7,6.5c0,1,0.1,1.9,0.4,2.7c0.1,0.4,1.4,2.9,3.8,7.7c1.6,3.2,2.4,5.9,2.4,8.1
						c0,1.8-0.4,3.6-1.3,5.3c-0.3,0.6-1,1.3-2.2,2.2c-1,0.7-1.8,1-2.6,1c-0.3,0-0.6,0-0.8-0.1c-1-0.4-1.5-1-1.5-1.6
						c0-0.4,0.2-0.9,0.7-1.4c0.1-0.2,0.4-0.3,0.9-0.3c0.5,0,0.8-0.2,1-0.6c0.7-1.5,1-2.9,1-4.5c0-2.1-1.1-5.3-3.2-9.3
						c-2.1-4.1-3.2-7.3-3.2-9.8c0-2,0.4-3.8,1.2-5.4c0.9-1.8,2.2-3.1,3.8-3.9c0.8-0.4,1.5-0.5,2.2-0.5c1.4,0,2.4,0.4,3.1,1.1
						C1170.5,134.5,1170.7,134.9,1170.7,135.2z"/>
					<path fill="#292929" d="M1188.2,154.3c-0.3,0.8-0.6,1.5-0.9,2.3c-0.4,0.9-0.8,1.6-1.3,2.1c-1,1.3-2,2.6-3.1,3.8
						c-1.2,1.5-2.3,2.6-3.3,3.2c-0.3,0.4-0.7,0.8-1.1,1.2c-0.4,0.4-0.8,0.6-1.2,0.6c-0.2,0-0.4,0-0.7-0.1c-0.3-0.1-0.6-0.2-0.9-0.3
						c-0.3-0.1-0.5-0.3-0.7-0.6c-0.1-1.4-0.1-2.9-0.1-4.5c0-1.6,0.1-4,0.2-7.2c0.1-3.2,0.2-5.6,0.2-7.2c0-2.1-0.1-4.1-0.2-5.9
						c0,0-0.4-0.4-1.1-1.1c-0.4-0.4-0.6-0.8-0.6-1.2c0-0.2,0-0.3,0.1-0.5c0.2-0.4,0.5-0.6,1.1-0.7c0.4-0.1,0.9-0.1,1.3-0.1
						c2.8,0.6,5.7,2.1,8.7,4.7c0.8,0.7,1.4,1.4,1.9,2.1c1.6,2.3,2.4,4.5,2.4,6.6C1188.8,152.3,1188.6,153.3,1188.2,154.3z
						 M1184.6,149c-0.3-2.1-2.1-3.9-5.3-5.5c-0.2,5.5-0.3,11.4-0.2,17.6c3.7-3.7,5.6-7.3,5.6-10.7
						C1184.7,149.9,1184.7,149.4,1184.6,149z"/>
					<path fill="#292929" d="M1209,162.9c0.2,0.5,0.3,1,0.3,1.4c0,0.7-0.3,1.2-0.8,1.7c-0.6,0.5-0.9,0.7-1.1,0.7
						c-1.6-0.3-2.6-1.6-3.1-3.9c-0.5-2.5-1-4.6-1.6-6.3c-1.1,0.1-2.2,0.2-3.4,0.3c-1.3,0.2-2.3,0.6-3,1.2c-0.4,1-0.8,2.8-1.4,5.5
						c-0.6,2.4-1.1,4.2-1.6,5.5c-0.3,0.6-0.8,0.8-1.7,0.5c-1.1-0.4-1.7-0.9-1.7-1.5c-0.1-1.3,0.3-2.9,1.1-5.1c1-2.4,1.5-4.1,1.6-5.2
						c0-0.3-0.2-0.6-0.6-1c-0.5-0.4-0.7-0.6-0.7-0.8c0-0.2,0.1-0.3,0.2-0.5c0.1-0.2,0.5-0.3,1-0.4c0.5-0.1,0.9-0.3,0.9-0.5
						c0.6-1.7,1.5-4.7,2.8-9.2c1.1-3.9,2.1-6.9,2.9-9c0.2-0.5,0.6-0.7,1.2-0.7c0.5,0,0.9,0.1,1.2,0.4c0.9,0.8,1.5,2,1.8,3.6
						c0.2,1.4,0.4,2.7,0.5,4.1C1205.5,151.4,1207.3,157.8,1209,162.9z M1201.8,153.4c-0.1-1.2-0.3-2.6-0.6-4.1
						c-0.3-1.3-0.6-2.6-0.9-4c-1,2.7-1.9,5.5-2.6,8.2C1198.2,153.4,1199.5,153.4,1201.8,153.4z"/>
					<path fill="#292929" d="M1226.9,135.9c-0.9,3.7-2.6,8.6-5.1,14.6c-2.9,7-4.8,11.8-5.6,14.4c-0.2,0.5-0.2,1.2-0.2,2
						c0,1.1,0,1.8,0,2.1c-0.1,1.2-0.7,1.7-1.8,1.7c-0.6,0.1-1.2-0.1-1.8-0.6c-0.6-0.4-1-0.9-0.9-1.4c0.1-2.4,0.7-5.2,1.8-8.3
						c1-2.6,2-5.3,3.1-7.9c-2.3-6.3-4.3-10.9-6-13.8c-0.1-0.2-0.1-0.3-0.1-0.5c0-0.4,0.2-0.7,0.6-1c0.4-0.3,0.8-0.5,1.2-0.5
						c0.1,0,0.7,0.2,1.9,0.5c0.8,1.3,1.7,2.9,2.6,4.9c0.8,1.7,1.5,3.4,2.2,5.1c0.7-2,1.3-3.9,2-5.9c0.8-2.3,1.6-4.2,2.5-5.7
						c0.3-0.5,0.7-0.7,1.4-0.7C1225.5,134.9,1226.3,135.3,1226.9,135.9z"/>
				</g>
				<g>
					<g>
						<rect x="1043.2" y="404.6" fill="#292929" width="210.6" height="3"/>
					</g>
					<g>
						<rect x="1043.2" y="369.2" fill="#292929" width="210.6" height="3"/>
					</g>
					<g>
						<rect x="1043.2" y="440" fill="#292929" width="210.6" height="3"/>
					</g>
					<g>
						<rect x="1043.2" y="333.8" fill="#292929" width="210.6" height="3"/>
					</g>
					<g>
						<rect x="1043.2" y="298.3" fill="#292929" width="210.6" height="3"/>
					</g>
					<g>
						<rect x="1043.2" y="262.9" fill="#292929" width="210.6" height="3"/>
					</g>
					<g>
						<rect x="1043.2" y="227.5" fill="#292929" width="210.6" height="3"/>
					</g>
				</g>
			</g>
			<g>
				<g>
					<path fill="#7F3F98" d="M102,534.7v383.9c0,11.5,9.3,20.8,20.8,20.8h257.3c11.5,0,20.8-9.3,20.8-20.8V534.7
						c0-11.5-9.3-20.8-20.8-20.8H122.8C111.3,513.8,102,523.2,102,534.7z"/>
					<path fill="#292929" d="M380.2,940.9H122.8c-12.3,0-22.3-10-22.3-22.3V534.7c0-12.3,10-22.3,22.3-22.3h257.3
						c12.3,0,22.3,10,22.3,22.3v383.9C402.5,930.9,392.5,940.9,380.2,940.9z M122.8,515.3c-10.7,0-19.3,8.7-19.3,19.3v383.9
						c0,10.7,8.7,19.3,19.3,19.3h257.3c10.7,0,19.3-8.7,19.3-19.3V534.7c0-10.7-8.7-19.3-19.3-19.3H122.8z"/>
				</g>
				<g>
					<path fill="#FFFFFF" d="M123.4,897.2V556.1c0-11.5,9.3-20.8,20.8-20.8h214.5c11.5,0,20.8,9.3,20.8,20.8v341.1
						c0,11.5-9.3,20.8-20.8,20.8H144.3C132.8,918,123.4,908.7,123.4,897.2z"/>
					<path fill="#292929" d="M358.7,919.5H144.3c-12.3,0-22.3-10-22.3-22.3V556.1c0-12.3,10-22.3,22.3-22.3h214.5
						c12.3,0,22.3,10,22.3,22.3v341.1C381.1,909.5,371.1,919.5,358.7,919.5z M144.3,536.7c-10.7,0-19.3,8.7-19.3,19.3v341.1
						c0,10.7,8.7,19.3,19.3,19.3h214.5c10.7,0,19.3-8.7,19.3-19.3V556.1c0-10.7-8.7-19.3-19.3-19.3H144.3z"/>
				</g>
				<g>
					<rect x="156.4" y="596.4" fill="#292929" width="187" height="3"/>
				</g>
				<g>
					<path fill="#292929" d="M227.4,555.3c0,0.7-0.2,1.4-0.7,1.9c-0.4,0.6-1,0.9-1.7,1.1c-0.3,0.1-0.7,0-1.2-0.2
						c-0.5-0.2-0.9-0.3-1.2-0.3c-1.6,0.1-3.5,0.7-5.7,1.6c-2.9,1.2-4.8,1.9-5.6,2.2c-0.1,2.2-0.2,4.5-0.2,6.8c0,2.3,0.1,4.6,0.2,6.9
						c0.3,0.1,0.6,0.1,0.9,0.1c0.7,0,2-0.3,3.8-0.9c1.7-0.5,3.1-0.7,4-0.6c0.8,0.1,1.1,0.4,1.1,0.9c-0.2,1.4-1.1,2.4-2.7,3.2
						c-1.5,0.5-2.9,0.9-4.4,1.4c-0.6,0.1-1.5,0.2-2.8,0.5c-0.1,0.7-0.1,1.5-0.1,2.4c0,0.9,0,2.1,0.1,3.9c0.1,1.7,0.1,3,0.1,3.9
						c0,3.1-0.5,5.5-1.4,7.2c-0.2,0.4-0.5,0.6-1,0.6c-0.4,0-0.9-0.2-1.3-0.6c-0.5-0.4-0.8-0.8-0.9-1.3c-0.4-1.1-0.5-2.4-0.5-3.8
						c0-0.5,0.1-2.2,0.4-5.2c0.2-2.1,0.1-3.9-0.1-5.2c-0.1-0.5-0.4-0.8-1.1-1.1c-0.8-0.4-1.3-0.6-1.5-0.9c-0.1-0.2-0.1-1,0.1-2.1
						c0.4,0.1,0.8-0.1,1.1-0.4c0.3-0.4,0.6-0.5,0.9-0.5c0.1,0,0.3,0,0.4,0.1c0.4-1.7,0.5-3.7,0.5-5.9c0-0.7-0.1-3.5-0.4-8.3
						c-0.7-0.2-1.3-0.6-2-1.3c-0.7-0.7-1-1.3-1-1.9c0-0.9,0.6-1.4,1.9-1.6c1.7-0.2,5-1.1,9.6-2.7c4.1-1.3,7.4-2,9.9-2.1
						c0.6,0,1.2,0.2,1.7,0.5C227.2,554.3,227.4,554.7,227.4,555.3z"/>
					<path fill="#292929" d="M245.9,589.5c0.1,0.1,0.2,0.3,0.2,0.5c0,0.8-0.9,1.4-2.6,1.9c-1.9-1.5-4.2-3.7-7-6.7
						c-3.1-3.4-5.4-5.7-7-7c-0.1,0.9-0.3,3.3-0.6,7.2c-0.2,2.9-0.5,5.3-1,7c-0.1,0-0.3,0.1-0.7,0.3c-0.4,0.2-0.7,0.2-0.9,0.2
						c-1.6-0.4-2.3-1.4-2.3-3.2c0-0.5,0.1-1.2,0.2-2.1c0.1-1,0.2-1.7,0.3-1.9c0.1-2.1,0.2-4.5,0.3-7.3v-5.8c0-4.8,0.3-8.9,0.8-12.2
						c0.4-2.2,2.4-3.2,6.2-3c1.9,0.1,3.6,1,5,2.9c1.3,1.7,2,3.5,2,5.5c0,1.7-0.6,3.3-1.9,5c-1.1,1.5-2.4,2.7-3.9,3.5
						c-0.6,0.4-1,0.7-1,1.2c0,0.5,0.4,1,1.1,1.6c0.6,0.5,1.1,0.9,1.7,1.4c0,0,2,1.8,5.9,5.3C243.1,585.8,244.8,587.7,245.9,589.5z
						 M234.6,565.6c0.1-0.6,0.1-1.2,0.1-1.7c-0.1-0.7-0.4-1.4-0.9-2c-0.5-0.6-1.3-0.9-2.5-0.9c-0.9,0-1.4,0.3-1.6,0.8
						c-0.2,0.9-0.3,1.9-0.3,3c0,0.5,0.1,1.6,0.2,3.6c0.1,1.5,0.1,2.6,0,3.6C232.6,569.7,234.2,567.6,234.6,565.6z"/>
					<path fill="#292929" d="M249.1,562.2c0.1,1,0.1,2.1,0.1,3.2c0,2.4-0.2,6.1-0.7,10.9c-0.5,4.9-0.7,8.5-0.7,11
						c0,0.9,0,1.8,0.1,2.7c-0.3,1-1,1.5-2.1,1.4c-1.5-0.1-2.4-0.7-2.5-2c-0.1-1.2-0.2-2.6-0.2-3.9c0-2.4,0.3-6,0.9-10.8
						c0.6-4.8,0.9-8.4,0.9-10.8c0-0.9,0-1.8-0.1-2.7c0.4-0.7,1-1,1.8-1c0.7,0,1.3,0.2,2,0.6c0.1-0.1,0.2-0.2,0.3-0.2
						c0.1,0,0.2,0.2,0.2,0.5c0,0.4,0,0.7,0,0.7C249,562.1,249.1,562.1,249.1,562.2z"/>
					<path fill="#292929" d="M267.6,577.3c-0.4,0.8-0.7,1.6-1,2.4c-0.4,1-0.9,1.7-1.4,2.3c-1.1,1.4-2.2,2.8-3.3,4.1
						c-1.3,1.6-2.5,2.8-3.6,3.4c-0.4,0.4-0.7,0.9-1.2,1.3c-0.4,0.5-0.9,0.7-1.3,0.7c-0.2,0-0.5-0.1-0.7-0.2
						c-0.3-0.1-0.6-0.2-0.9-0.4c-0.3-0.1-0.6-0.4-0.7-0.7c-0.1-1.5-0.2-3.1-0.2-4.8c0-1.7,0.1-4.3,0.2-7.8c0.1-3.4,0.2-6,0.2-7.8
						c0-2.3-0.1-4.4-0.3-6.3c0,0-0.4-0.4-1.2-1.2c-0.5-0.5-0.7-0.9-0.7-1.3c0-0.2,0-0.4,0.1-0.5c0.2-0.4,0.6-0.7,1.2-0.7
						c0.5-0.1,0.9-0.1,1.4-0.2c3,0.6,6.1,2.3,9.4,5c0.9,0.7,1.5,1.5,2.1,2.2c1.7,2.5,2.6,4.9,2.6,7.1
						C268.3,575.2,268,576.3,267.6,577.3z M263.7,571.6c-0.3-2.2-2.2-4.2-5.7-5.9c-0.2,5.9-0.3,12.2-0.2,18.8c4-4,6-7.8,6-11.4
						C263.8,572.6,263.8,572.1,263.7,571.6z"/>
					<path fill="#292929" d="M290,586.5c0.2,0.6,0.3,1.1,0.3,1.5c0,0.7-0.3,1.3-0.9,1.9c-0.6,0.5-1,0.8-1.2,0.7
						c-1.7-0.3-2.8-1.7-3.3-4.2c-0.5-2.7-1.1-5-1.8-6.8c-1.2,0.1-2.4,0.2-3.6,0.3c-1.4,0.2-2.5,0.6-3.2,1.3
						c-0.4,1.1-0.9,3.1-1.5,5.9c-0.6,2.6-1.2,4.6-1.8,5.9c-0.3,0.6-0.9,0.8-1.8,0.5c-1.2-0.4-1.8-0.9-1.9-1.6
						c-0.1-1.3,0.3-3.2,1.2-5.4c1.1-2.6,1.6-4.4,1.8-5.5c0-0.3-0.2-0.7-0.7-1.1c-0.5-0.4-0.7-0.7-0.7-0.9c0-0.2,0.1-0.4,0.2-0.6
						c0.2-0.2,0.5-0.4,1.1-0.5c0.6-0.1,0.9-0.3,1-0.6c0.6-1.8,1.6-5.1,3-9.9c1.2-4.2,2.2-7.4,3.1-9.6c0.2-0.5,0.7-0.7,1.3-0.7
						c0.5,0,0.9,0.2,1.3,0.5c1,0.9,1.6,2.1,1.9,3.8c0.2,1.5,0.4,2.9,0.6,4.4C286.2,574.2,288.1,581.1,290,586.5z M282.2,576.4
						c-0.1-1.3-0.3-2.8-0.7-4.4c-0.4-1.4-0.7-2.8-1-4.3c-1.1,2.9-2,5.9-2.8,8.8C278.3,576.4,279.8,576.4,282.2,576.4z"/>
					<path fill="#292929" d="M309.2,557.6c-1,4-2.8,9.2-5.5,15.6c-3.1,7.5-5.1,12.7-6,15.5c-0.2,0.6-0.3,1.3-0.3,2.1
						c0,1.2,0,1.9,0,2.2c-0.1,1.2-0.8,1.9-2,1.9c-0.6,0.1-1.3-0.1-1.9-0.6c-0.7-0.5-1-1-1-1.5c0.1-2.6,0.8-5.6,2-8.9
						c1.1-2.8,2.2-5.7,3.3-8.5c-2.5-6.7-4.7-11.7-6.4-14.8c-0.1-0.2-0.2-0.4-0.2-0.5c0-0.4,0.2-0.8,0.7-1.1c0.4-0.3,0.9-0.5,1.3-0.5
						c0.1,0,0.7,0.2,2,0.6c0.9,1.3,1.8,3.1,2.8,5.2c0.8,1.8,1.6,3.6,2.4,5.4c0.7-2.1,1.4-4.2,2.1-6.3c0.8-2.4,1.7-4.5,2.7-6.1
						c0.3-0.5,0.8-0.7,1.5-0.7C307.7,556.6,308.5,556.9,309.2,557.6z"/>
				</g>
				<g>
					<g>
						<rect x="146.2" y="825.2" fill="#292929" width="210.6" height="3"/>
					</g>
					<g>
						<rect x="146.2" y="789.7" fill="#292929" width="210.6" height="3"/>
					</g>
					<g>
						<rect x="146.2" y="860.6" fill="#292929" width="210.6" height="3"/>
					</g>
					<g>
						<rect x="146.2" y="754.3" fill="#292929" width="210.6" height="3"/>
					</g>
					<g>
						<rect x="146.2" y="718.9" fill="#292929" width="210.6" height="3"/>
					</g>
					<g>
						<rect x="146.2" y="683.5" fill="#292929" width="210.6" height="3"/>
					</g>
					<g>
						<rect x="146.2" y="648.1" fill="#292929" width="210.6" height="3"/>
					</g>
				</g>
			</g>
			<g>
				<g>
					<path fill="#F06CA5" d="M401,534.7v383.9c0,11.5,9.3,20.8,20.8,20.8h257.3c11.5,0,20.8-9.3,20.8-20.8V534.7
						c0-11.5-9.3-20.8-20.8-20.8H421.8C410.3,513.8,401,523.2,401,534.7z"/>
					<path fill="#292929" d="M679.2,940.9H421.8c-12.3,0-22.3-10-22.3-22.3V534.7c0-12.3,10-22.3,22.3-22.3h257.3
						c12.3,0,22.3,10,22.3,22.3v383.9C701.5,930.9,691.5,940.9,679.2,940.9z M421.8,515.3c-10.7,0-19.3,8.7-19.3,19.3v383.9
						c0,10.7,8.7,19.3,19.3,19.3h257.3c10.7,0,19.3-8.7,19.3-19.3V534.7c0-10.7-8.7-19.3-19.3-19.3H421.8z"/>
				</g>
				<g>
					<path fill="#FFFFFF" d="M422.4,897.2V556.1c0-11.5,9.3-20.8,20.8-20.8h214.5c11.5,0,20.8,9.3,20.8,20.8v341.1
						c0,11.5-9.3,20.8-20.8,20.8H443.3C431.8,918,422.4,908.7,422.4,897.2z"/>
					<path fill="#292929" d="M657.7,919.5H443.3c-12.3,0-22.3-10-22.3-22.3V556.1c0-12.3,10-22.3,22.3-22.3h214.5
						c12.3,0,22.3,10,22.3,22.3v341.1C680.1,909.5,670.1,919.5,657.7,919.5z M443.3,536.7c-10.7,0-19.3,8.7-19.3,19.3v341.1
						c0,10.7,8.7,19.3,19.3,19.3h214.5c10.7,0,19.3-8.7,19.3-19.3V556.1c0-10.7-8.7-19.3-19.3-19.3H443.3z"/>
				</g>
				<g>
					<rect x="457" y="596.4" fill="#292929" width="187" height="3"/>
				</g>
				<g>
					<path fill="#292929" d="M487,548.4c0,0.7-0.5,1.3-1.5,1.9c-0.3,0.1-0.6,0.2-0.9,0.1c-0.5-0.1-0.8-0.2-0.8-0.2
						c-0.2,0-0.4,0.1-0.6,0.3c-1.9,1.9-2.9,4.3-2.9,7c0,1,0.2,2,0.5,2.9c0.1,0.4,1.5,3.1,4,8.3c1.7,3.4,2.6,6.3,2.6,8.7
						c0,2-0.5,3.8-1.4,5.6c-0.3,0.6-1.1,1.4-2.4,2.3c-1,0.7-2,1.1-2.8,1.1c-0.3,0-0.6-0.1-0.9-0.2c-1.1-0.5-1.6-1-1.6-1.8
						c0-0.4,0.3-0.9,0.8-1.5c0.1-0.2,0.5-0.3,1-0.3c0.5,0,0.9-0.2,1.1-0.6c0.7-1.6,1.1-3.2,1.1-4.8c0-2.3-1.1-5.7-3.4-10
						c-2.3-4.4-3.4-7.9-3.4-10.5c0-2.2,0.4-4.1,1.3-5.8c1-2,2.3-3.4,4.1-4.2c0.8-0.4,1.6-0.6,2.4-0.6c1.5,0,2.6,0.4,3.4,1.2
						C486.8,547.6,487,548,487,548.4z"/>
					<path fill="#292929" d="M509.6,578c0.2,0.6,0.3,1.1,0.3,1.5c0,0.7-0.3,1.3-0.9,1.9c-0.6,0.5-1,0.8-1.2,0.7
						c-1.7-0.3-2.8-1.7-3.3-4.2c-0.5-2.7-1.1-5-1.8-6.8c-1.2,0.1-2.4,0.2-3.6,0.3c-1.4,0.2-2.5,0.6-3.2,1.3
						c-0.4,1.1-0.9,3.1-1.5,5.9c-0.6,2.6-1.2,4.6-1.8,5.9c-0.3,0.6-0.9,0.8-1.8,0.5c-1.2-0.4-1.8-0.9-1.9-1.6
						c-0.1-1.3,0.3-3.2,1.2-5.4c1.1-2.6,1.6-4.4,1.8-5.5c0-0.3-0.2-0.7-0.7-1.1c-0.5-0.4-0.7-0.7-0.7-0.9c0-0.2,0.1-0.4,0.2-0.6
						c0.2-0.2,0.5-0.4,1.1-0.5c0.6-0.1,0.9-0.3,1-0.6c0.6-1.8,1.6-5.1,3-9.9c1.2-4.2,2.2-7.4,3.1-9.6c0.2-0.5,0.7-0.7,1.3-0.7
						c0.5,0,0.9,0.2,1.3,0.5c1,0.9,1.6,2.1,1.9,3.8c0.2,1.5,0.4,2.9,0.6,4.4C505.8,565.7,507.7,572.6,509.6,578z M501.8,567.8
						c-0.1-1.3-0.3-2.8-0.7-4.4c-0.4-1.4-0.7-2.8-1-4.3c-1.1,2.9-2,5.9-2.8,8.8C497.9,567.9,499.4,567.8,501.8,567.8z"/>
					<path fill="#292929" d="M538.3,547.4c-0.3,1.3-0.9,2-1.8,2.2c-2.3,0.6-6.3,1.3-12,2.2c-0.7,8.8-1.1,16.2-1.1,22.1
						c0,2.2,0,4.4,0.1,6.6c0,0.7,0,1.2-0.1,1.5c-0.2,0.6-0.5,0.8-1.1,0.8c-1,0-1.9-0.5-2.6-1.3c-0.7-0.8-1-1.8-1.1-2.8
						c-0.1-1.3-0.1-2.7-0.1-4.2c0-2.3,0.2-6,0.5-11.1c0.3-4.9,0.5-8.6,0.4-11.1c-1-0.1-2.3,0-4,0.3c-2,0.3-3.3,0.4-4,0.4
						c-1.7,0-3.2-0.5-4.3-1.4c-0.4-0.9-0.6-1.4-0.6-1.4c0-0.3,0.1-0.5,0.4-0.8c1.1-0.4,3.5-0.8,7-1.1c3.1-0.3,5.4-0.9,6.9-1.7
						c1.2,0.4,2.7,0.6,4.3,0.6s3.1-0.2,4.6-0.6c0.4,0,1.5-0.3,3.2-0.7c1.3-0.3,2.3-0.4,3.2-0.3c0.6,0,0.9,0.3,0.8,0.8
						C537.8,546.4,538.3,546.8,538.3,547.4z"/>
					<path fill="#292929" d="M550.3,551.5c-0.2,2.5-1,5.8-2.1,10c-1.6,5.6-2.5,8.9-2.8,10.1c-0.8,3.6-2.3,6.8-4.5,9.8
						c-1.4,1.9-3,2.8-4.8,2.8c-1.6,0-2.8-1-3.6-3c-1.3-3.3-2-7.3-2-11.8c0-2.6,0.2-5.9,0.7-10c0,0.4-0.1-0.7-0.1-3.3
						c0-2.2,0.9-3.3,2.6-3.3c0.4,0,0.7,0.1,1.1,0.3c0.4,0.2,0.8,0.4,1.2,0.6c0,1.8,0,4.5-0.2,8c-0.2,3.8-0.3,6.5-0.3,8.1
						c0,1.8,0.1,3.4,0.2,4.8c0.1,0.7,0.4,2.2,1,4.3c1.5-1.7,2.7-3.9,3.5-6.7c0.3-0.9,0.9-3.4,1.7-7.6c0.7-3.1,1.4-5.6,2.3-7.3
						c0.2-0.5,0.5-1.4,0.6-2.8c0.2-1.4,0.4-2.3,0.6-2.9c0.4-0.9,1.1-1.3,2-1.3C548.9,550.4,549.8,550.8,550.3,551.5z"/>
					<path fill="#292929" d="M573.6,580.9c0.1,0.1,0.2,0.3,0.2,0.5c0,0.8-0.9,1.4-2.6,1.9c-1.9-1.5-4.2-3.7-7-6.7
						c-3.1-3.4-5.4-5.7-7-7c-0.1,0.9-0.3,3.3-0.6,7.2c-0.2,2.9-0.5,5.3-1,7c-0.1,0-0.3,0.1-0.7,0.3c-0.4,0.2-0.7,0.2-0.9,0.2
						c-1.6-0.4-2.3-1.4-2.3-3.2c0-0.5,0.1-1.2,0.2-2.1c0.1-1,0.2-1.7,0.3-1.9c0.1-2.1,0.2-4.5,0.3-7.3v-5.8c0-4.8,0.3-8.9,0.8-12.2
						c0.4-2.2,2.4-3.2,6.2-3c1.9,0.1,3.6,1,5,2.9c1.3,1.7,2,3.5,2,5.5c0,1.7-0.6,3.3-1.9,5c-1.1,1.5-2.4,2.7-3.9,3.5
						c-0.6,0.4-1,0.7-1,1.2c0,0.5,0.4,1,1.1,1.6c0.6,0.5,1.1,0.9,1.7,1.4c0,0,2,1.8,5.9,5.3C570.8,577.2,572.5,579.2,573.6,580.9z
						 M562.3,557c0.1-0.6,0.1-1.2,0.1-1.7c-0.1-0.7-0.4-1.4-0.9-2c-0.5-0.6-1.3-0.9-2.5-0.9c-0.9,0-1.4,0.3-1.6,0.8
						c-0.2,0.9-0.3,1.9-0.3,3c0,0.5,0.1,1.6,0.2,3.6c0.1,1.5,0.1,2.6,0,3.6C560.3,561.2,561.9,559.1,562.3,557z"/>
					<path fill="#292929" d="M586.2,568.8c-0.4,0.8-0.7,1.6-1,2.4c-0.4,1-0.9,1.7-1.4,2.3c-1.1,1.4-2.2,2.8-3.3,4.1
						c-1.3,1.6-2.5,2.8-3.6,3.4c-0.4,0.4-0.7,0.9-1.2,1.3c-0.4,0.5-0.9,0.7-1.3,0.7c-0.2,0-0.5-0.1-0.7-0.2
						c-0.3-0.1-0.6-0.2-0.9-0.4c-0.3-0.1-0.6-0.4-0.7-0.7c-0.1-1.5-0.2-3.1-0.2-4.8c0-1.7,0.1-4.3,0.2-7.8c0.1-3.4,0.2-6,0.2-7.8
						c0-2.3-0.1-4.4-0.3-6.3c0,0-0.4-0.4-1.2-1.2c-0.5-0.5-0.7-0.9-0.7-1.3c0-0.2,0-0.4,0.1-0.5c0.2-0.4,0.6-0.7,1.2-0.7
						c0.5-0.1,0.9-0.1,1.4-0.2c3,0.6,6.1,2.3,9.4,5c0.9,0.7,1.5,1.5,2.1,2.2c1.7,2.5,2.6,4.9,2.6,7.1
						C586.9,566.7,586.7,567.8,586.2,568.8z M582.4,563.1c-0.3-2.2-2.2-4.2-5.7-5.9c-0.2,5.9-0.3,12.2-0.2,18.8c4-4,6-7.8,6-11.4
						C582.5,564.1,582.5,563.6,582.4,563.1z"/>
					<path fill="#292929" d="M608.6,578c0.2,0.6,0.3,1.1,0.3,1.5c0,0.7-0.3,1.3-0.9,1.9c-0.6,0.5-1,0.8-1.2,0.7
						c-1.7-0.3-2.8-1.7-3.3-4.2c-0.5-2.7-1.1-5-1.8-6.8c-1.2,0.1-2.4,0.2-3.6,0.3c-1.4,0.2-2.5,0.6-3.2,1.3
						c-0.4,1.1-0.9,3.1-1.5,5.9c-0.6,2.6-1.2,4.6-1.8,5.9c-0.3,0.6-0.9,0.8-1.8,0.5c-1.2-0.4-1.8-0.9-1.9-1.6
						c-0.1-1.3,0.3-3.2,1.2-5.4c1.1-2.6,1.6-4.4,1.8-5.5c0-0.3-0.2-0.7-0.7-1.1c-0.5-0.4-0.7-0.7-0.7-0.9c0-0.2,0.1-0.4,0.2-0.6
						c0.2-0.2,0.5-0.4,1.1-0.5c0.6-0.1,0.9-0.3,1-0.6c0.6-1.8,1.6-5.1,3-9.9c1.2-4.2,2.2-7.4,3.1-9.6c0.2-0.5,0.7-0.7,1.3-0.7
						c0.5,0,0.9,0.2,1.3,0.5c1,0.9,1.6,2.1,1.9,3.8c0.2,1.5,0.4,2.9,0.6,4.4C604.9,565.7,606.7,572.6,608.6,578z M600.9,567.8
						c-0.1-1.3-0.3-2.8-0.7-4.4c-0.4-1.4-0.7-2.8-1-4.3c-1.1,2.9-2,5.9-2.8,8.8C597,567.9,598.4,567.8,600.9,567.8z"/>
					<path fill="#292929" d="M627.8,549c-1,4-2.8,9.2-5.5,15.6c-3.1,7.5-5.1,12.7-6,15.5c-0.2,0.6-0.3,1.3-0.3,2.1
						c0,1.2,0,1.9,0,2.2c-0.1,1.2-0.8,1.9-2,1.9c-0.6,0.1-1.3-0.1-1.9-0.6s-1-1-1-1.5c0.1-2.6,0.8-5.6,2-8.9
						c1.1-2.8,2.2-5.7,3.3-8.5c-2.5-6.7-4.7-11.7-6.4-14.8c-0.1-0.2-0.2-0.4-0.2-0.5c0-0.4,0.2-0.8,0.7-1.1c0.4-0.3,0.9-0.5,1.3-0.5
						c0.1,0,0.7,0.2,2,0.6c0.9,1.3,1.8,3.1,2.8,5.2c0.8,1.8,1.6,3.6,2.4,5.4c0.7-2.1,1.4-4.2,2.1-6.3c0.8-2.4,1.7-4.5,2.7-6.1
						c0.3-0.5,0.8-0.7,1.5-0.7C626.3,548,627.2,548.4,627.8,549z"/>
				</g>
				<g>
					<g>
						<rect x="445.2" y="825.2" fill="#292929" width="210.6" height="3"/>
					</g>
					<g>
						<rect x="445.2" y="789.7" fill="#292929" width="210.6" height="3"/>
					</g>
					<g>
						<rect x="445.2" y="860.6" fill="#292929" width="210.6" height="3"/>
					</g>
					<g>
						<rect x="445.2" y="754.3" fill="#292929" width="210.6" height="3"/>
					</g>
					<g>
						<rect x="445.2" y="718.9" fill="#292929" width="210.6" height="3"/>
					</g>
					<g>
						<rect x="445.2" y="683.5" fill="#292929" width="210.6" height="3"/>
					</g>
					<g>
						<rect x="445.2" y="648.1" fill="#292929" width="210.6" height="3"/>
					</g>
				</g>
			</g>
			<g>
				<g>
					<path fill="#AE7C5C" d="M700,534.7v383.9c0,11.5,9.3,20.8,20.8,20.8h257.3c11.5,0,20.8-9.3,20.8-20.8V534.7
						c0-11.5-9.3-20.8-20.8-20.8H720.8C709.3,513.8,700,523.2,700,534.7z"/>
					<path fill="#292929" d="M978.2,940.9H720.8c-12.3,0-22.3-10-22.3-22.3V534.7c0-12.3,10-22.3,22.3-22.3h257.3
						c12.3,0,22.3,10,22.3,22.3v383.9C1000.5,930.9,990.5,940.9,978.2,940.9z M720.8,515.3c-10.7,0-19.3,8.7-19.3,19.3v383.9
						c0,10.7,8.7,19.3,19.3,19.3h257.3c10.7,0,19.3-8.7,19.3-19.3V534.7c0-10.7-8.7-19.3-19.3-19.3H720.8z"/>
				</g>
				<g>
					<path fill="#FFFFFF" d="M721.4,897.2V556.1c0-11.5,9.3-20.8,20.8-20.8h214.5c11.5,0,20.8,9.3,20.8,20.8v341.1
						c0,11.5-9.3,20.8-20.8,20.8H742.3C730.8,918,721.4,908.7,721.4,897.2z"/>
					<path fill="#292929" d="M956.7,919.5H742.3c-12.3,0-22.3-10-22.3-22.3V556.1c0-12.3,10-22.3,22.3-22.3h214.5
						c12.3,0,22.3,10,22.3,22.3v341.1C979.1,909.5,969,919.5,956.7,919.5z M742.3,536.7c-10.7,0-19.3,8.7-19.3,19.3v341.1
						c0,10.7,8.7,19.3,19.3,19.3h214.5c10.7,0,19.3-8.7,19.3-19.3V556.1c0-10.7-8.7-19.3-19.3-19.3H742.3z"/>
				</g>
				<g>
					<rect x="757.6" y="596.4" fill="#292929" width="187" height="3"/>
				</g>
				<g>
					<path fill="#292929" d="M802.9,552.5c0,0.7-0.5,1.3-1.5,1.9c-0.3,0.1-0.6,0.2-0.9,0.1c-0.5-0.1-0.8-0.2-0.8-0.2
						c-0.2,0-0.4,0.1-0.6,0.3c-1.9,1.9-2.9,4.3-2.9,7c0,1,0.2,2,0.5,2.9c0.1,0.4,1.5,3.1,4,8.3c1.7,3.4,2.6,6.3,2.6,8.7
						c0,2-0.5,3.8-1.4,5.6c-0.3,0.6-1.1,1.4-2.4,2.3c-1,0.7-2,1.1-2.8,1.1c-0.3,0-0.6-0.1-0.9-0.2c-1.1-0.5-1.6-1-1.6-1.8
						c0-0.4,0.3-0.9,0.8-1.5c0.1-0.2,0.5-0.3,1-0.3c0.5,0,0.9-0.2,1.1-0.6c0.7-1.6,1.1-3.2,1.1-4.8c0-2.3-1.1-5.7-3.4-10
						c-2.3-4.4-3.4-7.9-3.4-10.5c0-2.2,0.4-4.1,1.3-5.8c1-2,2.3-3.4,4.1-4.2c0.8-0.4,1.6-0.6,2.4-0.6c1.5,0,2.6,0.4,3.4,1.2
						C802.8,551.8,802.9,552.2,802.9,552.5z"/>
					<path fill="#292929" d="M825.5,555.7c-0.2,2.5-1,5.8-2.1,10c-1.6,5.6-2.5,8.9-2.8,10.1c-0.8,3.6-2.3,6.8-4.5,9.8
						c-1.4,1.9-3,2.8-4.8,2.8c-1.6,0-2.8-1-3.6-3c-1.3-3.3-2-7.3-2-11.8c0-2.6,0.2-5.9,0.7-10c0,0.4-0.1-0.7-0.1-3.3
						c0-2.2,0.9-3.3,2.6-3.3c0.4,0,0.7,0.1,1.1,0.3c0.4,0.2,0.8,0.4,1.2,0.6c0,1.8,0,4.5-0.2,8c-0.2,3.8-0.3,6.5-0.3,8.1
						c0,1.8,0.1,3.4,0.2,4.8c0.1,0.7,0.4,2.2,1,4.3c1.5-1.7,2.7-3.9,3.5-6.7c0.3-0.9,0.9-3.4,1.7-7.6c0.7-3.1,1.4-5.6,2.3-7.3
						c0.2-0.5,0.5-1.4,0.6-2.8c0.2-1.4,0.4-2.3,0.6-2.9c0.4-0.9,1.1-1.3,2-1.3C824,554.6,824.9,555,825.5,555.7z"/>
					<path fill="#292929" d="M849.6,552.5c-0.5,4.8-1,9.5-1.4,14.3c-0.6,5.7-0.9,10.4-0.9,14.2c0,1.2,0,2.5,0.1,3.7
						c0,0.6-0.2,1.1-0.6,1.5c-0.4,0.4-1,0.6-1.5,0.6c-1.1,0-2-0.7-2.8-2.2c-2.3-4.4-5.1-11.4-8.5-20.9c-0.1-0.2-0.2-0.3-0.3-0.3
						c-0.2,0-0.4,0.2-0.5,0.7c-0.6,5.1-0.9,10.4-0.9,16c0,2.7,0.1,5.4,0.2,8.3c0,1-0.3,1.7-0.9,2.1c-0.2,0.2-0.5,0.4-0.8,0.4
						c-0.2,0-0.6-0.1-1-0.3c-0.5-0.2-0.9-0.4-1-0.5c-0.5-0.1-0.7-0.6-0.9-1.3c0-0.6-0.1-1.2-0.1-1.8c-0.1-2-0.2-4.1-0.2-6.2
						c0-3.8,0.2-8.5,0.6-14.1c0.7-8.6,1-13.3,1.1-14.3c0-0.8,0.7-1.2,2-1.2c0.6-0.1,1.5,0.4,2.7,1.3c1.1,2.2,2.5,5.7,4.2,10.5
						c1.6,4.6,3.1,8.2,4.4,10.6c0.5-4.7,1.4-11.9,2.5-21.4c0.1-0.7,0.6-1.1,1.5-1.1c0.3,0,0.7,0.1,1.1,0.2c0.6,0.1,0.9,0.2,1,0.3
						C849.2,551.9,849.5,552.1,849.6,552.5z"/>
					<path fill="#292929" d="M867.7,573c-0.4,0.8-0.7,1.6-1,2.4c-0.4,1-0.9,1.7-1.4,2.3c-1.1,1.4-2.2,2.8-3.3,4.1
						c-1.3,1.6-2.5,2.8-3.6,3.4c-0.4,0.4-0.7,0.9-1.2,1.3c-0.4,0.5-0.9,0.7-1.3,0.7c-0.2,0-0.5-0.1-0.7-0.2
						c-0.3-0.1-0.6-0.2-0.9-0.4c-0.3-0.1-0.6-0.4-0.7-0.7c-0.1-1.5-0.2-3.1-0.2-4.8c0-1.7,0.1-4.3,0.2-7.8c0.1-3.4,0.2-6,0.2-7.8
						c0-2.3-0.1-4.4-0.3-6.3c0,0-0.4-0.4-1.2-1.2c-0.5-0.5-0.7-0.9-0.7-1.3c0-0.2,0-0.4,0.1-0.5c0.2-0.4,0.6-0.7,1.2-0.7
						c0.5-0.1,0.9-0.1,1.4-0.2c3,0.6,6.1,2.3,9.4,5c0.9,0.7,1.5,1.5,2.1,2.2c1.7,2.5,2.6,4.9,2.6,7.1
						C868.4,570.9,868.2,572,867.7,573z M863.9,567.3c-0.3-2.2-2.2-4.2-5.7-5.9c-0.2,5.9-0.3,12.2-0.2,18.8c4-4,6-7.8,6-11.4
						C864,568.3,864,567.8,863.9,567.3z"/>
					<path fill="#292929" d="M890.1,582.2c0.2,0.6,0.3,1.1,0.3,1.5c0,0.7-0.3,1.3-0.9,1.9c-0.6,0.5-1,0.8-1.2,0.7
						c-1.7-0.3-2.8-1.7-3.3-4.2c-0.5-2.7-1.1-5-1.8-6.8c-1.2,0.1-2.4,0.2-3.6,0.3c-1.4,0.2-2.5,0.6-3.2,1.3
						c-0.4,1.1-0.9,3.1-1.5,5.9c-0.6,2.6-1.2,4.6-1.8,5.9c-0.3,0.6-0.9,0.8-1.8,0.5c-1.2-0.4-1.8-0.9-1.9-1.6
						c-0.1-1.3,0.3-3.2,1.2-5.4c1.1-2.6,1.6-4.4,1.8-5.5c0-0.3-0.2-0.7-0.7-1.1c-0.5-0.4-0.7-0.7-0.7-0.9c0-0.2,0.1-0.4,0.2-0.6
						c0.2-0.2,0.5-0.4,1.1-0.5c0.6-0.1,0.9-0.3,1-0.6c0.6-1.8,1.6-5.1,3-9.9c1.2-4.2,2.2-7.4,3.1-9.6c0.2-0.5,0.7-0.7,1.3-0.7
						c0.5,0,0.9,0.2,1.3,0.5c1,0.9,1.6,2.1,1.9,3.8c0.2,1.5,0.4,2.9,0.6,4.4C886.4,569.9,888.2,576.8,890.1,582.2z M882.3,572
						c-0.1-1.3-0.3-2.8-0.7-4.4c-0.4-1.4-0.7-2.8-1-4.3c-1.1,2.9-2,5.9-2.8,8.8C878.4,572.1,879.9,572,882.3,572z"/>
					<path fill="#292929" d="M909.3,553.2c-1,4-2.8,9.2-5.5,15.6c-3.1,7.5-5.1,12.7-6,15.5c-0.2,0.6-0.3,1.3-0.3,2.1
						c0,1.2,0,1.9,0,2.2c-0.1,1.2-0.8,1.9-2,1.9c-0.6,0.1-1.3-0.1-1.9-0.6s-1-1-1-1.5c0.1-2.6,0.8-5.6,2-8.9
						c1.1-2.8,2.2-5.7,3.3-8.5c-2.5-6.7-4.7-11.7-6.4-14.8c-0.1-0.2-0.2-0.4-0.2-0.5c0-0.4,0.2-0.8,0.7-1.1c0.4-0.3,0.9-0.5,1.3-0.5
						c0.1,0,0.7,0.2,2,0.6c0.9,1.3,1.8,3.1,2.8,5.2c0.8,1.8,1.6,3.6,2.4,5.4c0.7-2.1,1.4-4.2,2.1-6.3c0.8-2.4,1.7-4.5,2.7-6.1
						c0.3-0.5,0.8-0.7,1.5-0.7C907.8,552.2,908.7,552.6,909.3,553.2z"/>
				</g>
				<g>
					<g>
						<rect x="744.2" y="825.2" fill="#292929" width="210.6" height="3"/>
					</g>
					<g>
						<rect x="744.2" y="789.7" fill="#292929" width="210.6" height="3"/>
					</g>
					<g>
						<rect x="744.2" y="860.6" fill="#292929" width="210.6" height="3"/>
					</g>
					<g>
						<rect x="744.2" y="754.3" fill="#292929" width="210.6" height="3"/>
					</g>
					<g>
						<rect x="744.2" y="718.9" fill="#292929" width="210.6" height="3"/>
					</g>
					<g>
						<rect x="744.2" y="683.5" fill="#292929" width="210.6" height="3"/>
					</g>
					<g>
						<rect x="744.2" y="648.1" fill="#292929" width="210.6" height="3"/>
					</g>
				</g>
			</g>
			<g>
				<g>
					<path fill="#058B80" d="M1019.8,939.4h257.3c11.5,0,20.8-9.3,20.8-20.8V534.7c0-11.5-9.3-20.8-20.8-20.8h-257.3
						c-11.5,0-20.8,9.3-20.8,20.8v383.9C999,930.1,1008.3,939.4,1019.8,939.4z"/>
					<path fill="#292929" d="M1277.2,940.9h-257.3c-12.3,0-22.3-10-22.3-22.3V534.7c0-12.3,10-22.3,22.3-22.3h257.3
						c12.3,0,22.3,10,22.3,22.3v383.9C1299.5,930.9,1289.5,940.9,1277.2,940.9z M1019.8,515.3c-10.7,0-19.3,8.7-19.3,19.3v383.9
						c0,10.7,8.7,19.3,19.3,19.3h257.3c10.7,0,19.3-8.7,19.3-19.3V534.7c0-10.7-8.7-19.3-19.3-19.3H1019.8z"/>
				</g>
				<g>
					<path fill="#FFFFFF" d="M1020.4,897.2V556.1c0-11.5,9.3-20.8,20.8-20.8h214.5c11.5,0,20.8,9.3,20.8,20.8v341.1
						c0,11.5-9.3,20.8-20.8,20.8h-214.5C1029.8,918,1020.4,908.7,1020.4,897.2z"/>
					<path fill="#292929" d="M1255.7,919.5h-214.5c-12.3,0-22.3-10-22.3-22.3V556.1c0-12.3,10-22.3,22.3-22.3h214.5
						c12.3,0,22.3,10,22.3,22.3v341.1C1278.1,909.5,1268,919.5,1255.7,919.5z M1041.3,536.7c-10.7,0-19.3,8.7-19.3,19.3v341.1
						c0,10.7,8.7,19.3,19.3,19.3h214.5c10.7,0,19.3-8.7,19.3-19.3V556.1c0-10.7-8.7-19.3-19.3-19.3H1041.3z"/>
				</g>
				<g>
					<rect x="1058.2" y="596.4" fill="#292929" width="187" height="3"/>
				</g>
				<g>
					<path fill="#292929" d="M1121.3,552.5c-0.5,4.8-1,9.5-1.4,14.3c-0.6,5.7-0.9,10.4-0.9,14.2c0,1.2,0,2.5,0.1,3.7
						c0,0.6-0.2,1.1-0.6,1.5c-0.4,0.4-1,0.6-1.5,0.6c-1.1,0-2-0.7-2.8-2.2c-2.3-4.4-5.1-11.4-8.5-20.9c-0.1-0.2-0.2-0.3-0.3-0.3
						c-0.2,0-0.4,0.2-0.5,0.7c-0.6,5.1-0.9,10.4-0.9,16c0,2.7,0.1,5.4,0.2,8.3c0,1-0.3,1.7-0.9,2.1c-0.2,0.2-0.5,0.4-0.8,0.4
						c-0.2,0-0.6-0.1-1-0.3c-0.5-0.2-0.9-0.4-1-0.5c-0.5-0.1-0.7-0.6-0.9-1.3c0-0.6-0.1-1.2-0.1-1.8c-0.1-2-0.2-4.1-0.2-6.2
						c0-3.8,0.2-8.5,0.6-14.1c0.7-8.6,1-13.3,1.1-14.3c0-0.8,0.7-1.2,2-1.2c0.6-0.1,1.5,0.4,2.7,1.3c1.1,2.2,2.5,5.7,4.2,10.5
						c1.6,4.6,3.1,8.2,4.4,10.6c0.5-4.7,1.4-11.9,2.5-21.4c0.1-0.7,0.6-1.1,1.5-1.1c0.3,0,0.7,0.1,1.1,0.2c0.6,0.1,0.9,0.2,1,0.3
						C1120.9,551.9,1121.2,552.1,1121.3,552.5z"/>
					<path fill="#292929" d="M1142.1,573.2c-2.1,4.7-5.1,7.5-8.9,8.4c-0.5,0.1-0.9,0.2-1.4,0.2c-2,0-4.1-1.1-6.1-3.3
						c-1.4-1.5-2.1-3.4-2.1-5.8c0-2.6,0.8-5.4,2.3-8.5c0.7-1.3,1.5-2.4,2.4-3.3c1.1-1.1,2.1-1.7,3.1-1.7c0.6,0,1.1,0.2,1.6,0.6
						c0.5,0.4,1.8,1,4,1.7c1.7,0.6,2.9,1.5,3.6,2.9c1.2,2.4,1.9,4.4,1.9,6.1C1142.6,571.6,1142.4,572.5,1142.1,573.2z M1137.8,569.9
						c-0.2-2.6-0.9-4.1-2.1-4.6c-0.2-0.1-0.3-0.1-0.5-0.1c-0.4,0-1,0.4-1.6,1.1c-0.7,0.8-1.3,1.3-1.7,1.4c-0.2,0.1-0.6,0-1.1-0.3
						c-0.5-0.3-0.8-0.5-0.9-0.5c-0.1,0-0.2,0-0.3,0.1c-1.2,1.1-1.9,2.7-1.9,5c0,1.5,0.4,2.8,1.1,3.9c1,1.5,1.8,2.2,2.5,2.2
						c1.6,0,3.1-1,4.5-2.9C1137.4,573.3,1138,571.5,1137.8,569.9z"/>
					<path fill="#292929" d="M1171.3,551.6c-0.3,1.3-0.9,2-1.8,2.2c-2.3,0.6-6.3,1.3-12,2.2c-0.7,8.8-1.1,16.2-1.1,22.1
						c0,2.2,0,4.4,0.1,6.6c0,0.7,0,1.2-0.1,1.5c-0.2,0.6-0.5,0.8-1.1,0.8c-1,0-1.9-0.5-2.6-1.3c-0.7-0.8-1-1.8-1.1-2.8
						c-0.1-1.3-0.1-2.7-0.1-4.2c0-2.3,0.2-6,0.5-11.1c0.3-4.9,0.5-8.6,0.4-11.1c-1-0.1-2.3,0-4,0.3c-2,0.3-3.3,0.4-4,0.4
						c-1.7,0-3.2-0.5-4.3-1.4c-0.4-0.9-0.6-1.4-0.6-1.4c0-0.3,0.1-0.5,0.4-0.8c1.1-0.4,3.5-0.8,7-1.1c3.1-0.3,5.4-0.9,6.9-1.7
						c1.2,0.4,2.7,0.6,4.3,0.6c1.6,0,3.1-0.2,4.6-0.6c0.4,0,1.5-0.3,3.2-0.7c1.3-0.3,2.3-0.4,3.2-0.3c0.6,0,0.9,0.3,0.8,0.8
						C1170.8,550.6,1171.3,550.9,1171.3,551.6z"/>
					<path fill="#292929" d="M1182.4,558.1c-1.3,0.5-3.2,1.2-5.8,1.9c-2.6,0.7-4.5,1.3-5.8,1.9c-0.3,0.9-0.6,3-0.7,6.2
						c0.6,0.2,1.2,0.3,2,0.3c0.5,0,1.4-0.1,2.5-0.3c1.1-0.2,2-0.3,2.5-0.3c1,0,1.8,0.2,2.6,0.6c0.5,0.7,0.7,1.2,0.7,1.4
						c0,0.2-0.1,0.4-0.4,0.6c-0.1,0-0.3,0.3-0.7,0.7c-0.3,0.3-0.6,0.5-1.1,0.4c-0.7,0.2-2.1,0.3-4.1,0.3c-1.7,0-3,0.2-4,0.6
						c-0.7,2.6-1,4.7-1,6.2c0,1,0.1,1.8,0.4,2.4c1.7,1.2,4.6,1.7,8.7,1.5c0.3,0,0.6-0.1,0.9-0.4c0.3-0.3,0.6-0.4,0.8-0.4
						c1-0.2,1.7,0.5,2,2.2c0.1,0.6,0,1.1-0.3,1.6c-0.3,0.5-0.7,0.7-1.3,0.8c-4.3,0.1-8-0.2-11.2-1c-1-0.2-1.9-0.8-2.7-1.6
						c-0.8-0.9-1.3-1.8-1.4-2.9c-0.3-3.1-0.3-5.9,0-8.3c-1-0.7-1.4-1.3-1.3-2c0-0.3,0.3-0.6,0.8-0.9c0.5-0.3,0.8-0.5,0.9-0.8
						c0.1-0.3,0.2-2,0.4-5.1c-2-0.4-3-1.1-2.9-2.2c0-1,0.7-1.8,1.9-2.4c1.1-0.5,2.3-0.9,3.4-1.4c1.3-0.7,3-1.3,5-1.8
						c1.7-0.5,3.4-0.9,5.2-1.3c0.2,0,0.4-0.1,0.6-0.1c1,0,2.1,0.4,3.4,1.1c0,0.1,0.1,0.4,0.3,0.8c0.1,0.4,0.2,0.7,0.2,0.9
						C1182.8,557.7,1182.7,558,1182.4,558.1z"/>
					<path fill="#292929" d="M1195,552.5c0,0.7-0.5,1.3-1.5,1.9c-0.3,0.1-0.6,0.2-0.9,0.1c-0.5-0.1-0.8-0.2-0.8-0.2
						c-0.2,0-0.4,0.1-0.6,0.3c-1.9,1.9-2.9,4.3-2.9,7c0,1,0.2,2,0.5,2.9c0.1,0.4,1.5,3.1,4,8.3c1.7,3.4,2.6,6.3,2.6,8.7
						c0,2-0.5,3.8-1.4,5.6c-0.3,0.6-1.1,1.4-2.4,2.3c-1,0.7-2,1.1-2.8,1.1c-0.3,0-0.6-0.1-0.9-0.2c-1.1-0.5-1.6-1-1.6-1.8
						c0-0.4,0.3-0.9,0.8-1.5c0.1-0.2,0.5-0.3,1-0.3c0.5,0,0.9-0.2,1.1-0.6c0.7-1.6,1.1-3.2,1.1-4.8c0-2.3-1.1-5.7-3.4-10
						c-2.3-4.4-3.4-7.9-3.4-10.5c0-2.2,0.4-4.1,1.3-5.8c1-2,2.3-3.4,4.1-4.2c0.8-0.4,1.6-0.6,2.4-0.6c1.5,0,2.6,0.4,3.4,1.2
						C1194.8,551.8,1195,552.2,1195,552.5z"/>
				</g>
				<g>
					<g>
						<rect x="1043.2" y="825.2" fill="#292929" width="210.6" height="3"/>
					</g>
					<g>
						<rect x="1043.2" y="789.7" fill="#292929" width="210.6" height="3"/>
					</g>
					<g>
						<rect x="1043.2" y="860.6" fill="#292929" width="210.6" height="3"/>
					</g>
					<g>
						<rect x="1043.2" y="754.3" fill="#292929" width="210.6" height="3"/>
					</g>
					<g>
						<rect x="1043.2" y="718.9" fill="#292929" width="210.6" height="3"/>
					</g>
					<g>
						<rect x="1043.2" y="683.5" fill="#292929" width="210.6" height="3"/>
					</g>
					<g>
						<rect x="1043.2" y="648.1" fill="#292929" width="210.6" height="3"/>
					</g>
				</g>
			</g>
			<g>
				<path fill="#292929" d="M0,0v980h1400V0H0z M1378,908.3c0,27.4-22.2,49.7-49.7,49.7H71.7C44.2,958,22,935.8,22,908.3V71.7
					C22,44.2,44.2,22,71.7,22h1256.7c27.4,0,49.7,22.2,49.7,49.7V908.3z"/>
			</g>
			<g>
				<rect x="390.7" y="64.2" fill="#292929" width="181.5" height="3"/>
			</g>
			<g>
				<circle fill="#ED1C24" cx="592.7" cy="65.7" r="8.7"/>
				<path fill="#292929" d="M592.7,75.8c-5.6,0-10.2-4.6-10.2-10.2c0-5.6,4.6-10.2,10.2-10.2c5.6,0,10.2,4.6,10.2,10.2
					C602.9,71.3,598.3,75.8,592.7,75.8z M592.7,58.5c-4,0-7.2,3.2-7.2,7.2c0,4,3.2,7.2,7.2,7.2c4,0,7.2-3.2,7.2-7.2
					C599.9,61.7,596.7,58.5,592.7,58.5z"/>
			</g>
			<g>
				<circle fill="#F26522" cx="635.3" cy="65.7" r="8.7"/>
				<path fill="#292929" d="M635.3,75.8c-5.6,0-10.2-4.6-10.2-10.2c0-5.6,4.6-10.2,10.2-10.2s10.2,4.6,10.2,10.2
					C645.5,71.3,640.9,75.8,635.3,75.8z M635.3,58.5c-4,0-7.2,3.2-7.2,7.2c0,4,3.2,7.2,7.2,7.2c4,0,7.2-3.2,7.2-7.2
					C642.5,61.7,639.3,58.5,635.3,58.5z"/>
			</g>
			<g>
				<circle fill="#FFDE17" cx="677.9" cy="65.7" r="8.7"/>
				<path fill="#292929" d="M677.9,75.8c-5.6,0-10.2-4.6-10.2-10.2c0-5.6,4.6-10.2,10.2-10.2c5.6,0,10.2,4.6,10.2,10.2
					C688.1,71.3,683.5,75.8,677.9,75.8z M677.9,58.5c-4,0-7.2,3.2-7.2,7.2c0,4,3.2,7.2,7.2,7.2c4,0,7.2-3.2,7.2-7.2
					C685.1,61.7,681.9,58.5,677.9,58.5z"/>
			</g>
			<g>
				<circle fill="#00A14B" cx="720.5" cy="65.7" r="8.7"/>
				<path fill="#292929" d="M720.5,75.8c-5.6,0-10.2-4.6-10.2-10.2c0-5.6,4.6-10.2,10.2-10.2c5.6,0,10.2,4.6,10.2,10.2
					C730.7,71.3,726.1,75.8,720.5,75.8z M720.5,58.5c-4,0-7.2,3.2-7.2,7.2c0,4,3.2,7.2,7.2,7.2c4,0,7.2-3.2,7.2-7.2
					C727.7,61.7,724.5,58.5,720.5,58.5z"/>
			</g>
			<g>
				<circle fill="#7F3F98" cx="763.1" cy="65.7" r="8.7"/>
				<path fill="#292929" d="M763.1,75.8c-5.6,0-10.2-4.6-10.2-10.2c0-5.6,4.6-10.2,10.2-10.2c5.6,0,10.2,4.6,10.2,10.2
					C773.3,71.3,768.8,75.8,763.1,75.8z M763.1,58.5c-4,0-7.2,3.2-7.2,7.2c0,4,3.2,7.2,7.2,7.2c4,0,7.2-3.2,7.2-7.2
					C770.3,61.7,767.1,58.5,763.1,58.5z"/>
			</g>
			<g>
				<circle fill="#F06CA5" cx="805.8" cy="65.7" r="8.7"/>
				<path fill="#292929" d="M805.8,75.8c-5.6,0-10.2-4.6-10.2-10.2c0-5.6,4.6-10.2,10.2-10.2s10.2,4.6,10.2,10.2
					C815.9,71.3,811.4,75.8,805.8,75.8z M805.8,58.5c-4,0-7.2,3.2-7.2,7.2c0,4,3.2,7.2,7.2,7.2c4,0,7.2-3.2,7.2-7.2
					C812.9,61.7,809.7,58.5,805.8,58.5z"/>
			</g>
			<g>
				<circle fill="#AE7C5C" cx="848.4" cy="65.7" r="8.7"/>
				<path fill="#292929" d="M848.4,75.8c-5.6,0-10.2-4.6-10.2-10.2c0-5.6,4.6-10.2,10.2-10.2c5.6,0,10.2,4.6,10.2,10.2
					C858.5,71.3,854,75.8,848.4,75.8z M848.4,58.5c-4,0-7.2,3.2-7.2,7.2c0,4,3.2,7.2,7.2,7.2c4,0,7.2-3.2,7.2-7.2
					C855.5,61.7,852.3,58.5,848.4,58.5z"/>
			</g>
			<g>
				<circle fill="#058B80" cx="891" cy="65.7" r="8.7"/>
				<path fill="#292929" d="M891,75.8c-5.6,0-10.2-4.6-10.2-10.2c0-5.6,4.6-10.2,10.2-10.2c5.6,0,10.2,4.6,10.2,10.2
					C901.1,71.3,896.6,75.8,891,75.8z M891,58.5c-4,0-7.2,3.2-7.2,7.2c0,4,3.2,7.2,7.2,7.2c4,0,7.2-3.2,7.2-7.2
					C898.1,61.7,894.9,58.5,891,58.5z"/>
			</g>
		</g>
	</g>
</g>
</svg>
